<?xml version="1.0" encoding="UTF-8" standalone="no"?>
<svg width="270.933mm" height="133.35mm"
 xmlns="http://www.w3.org/2000/svg" xmlns:xlink="http://www.w3.org/1999/xlink"  version="1.2" baseProfile="tiny">
<title>Qt SVG Document</title>
<desc>Generated with Qt</desc>
<defs>
</defs>
<g fill="none" stroke="black" stroke-width="1" fill-rule="evenodd" stroke-linecap="square" stroke-linejoin="bevel" >

<g fill="none" stroke="#000000" stroke-opacity="1" stroke-width="1" stroke-linecap="square" stroke-linejoin="bevel" transform="matrix(1,0,0,1,0,0)"
font-family="Ubuntu" font-size="11" font-weight="400" font-style="normal" 
>
</g>

<g fill="none" stroke="#000000" stroke-opacity="1" stroke-width="1" stroke-linecap="square" stroke-linejoin="bevel" transform="matrix(1,0,0,1,0,0)"
font-family="Ubuntu" font-size="11" font-weight="400" font-style="normal" 
>
</g>

<g fill="none" stroke="#000000" stroke-opacity="1" stroke-width="1" stroke-linecap="square" stroke-linejoin="bevel" transform="matrix(2.00065,0,0,2.00065,0.00320104,374.802)"
font-family="Ubuntu" font-size="11" font-weight="400" font-style="normal" 
>
</g>

<g fill="#ffffff" fill-opacity="1" stroke="none" transform="matrix(2.00065,0,0,2.00065,0.00320104,374.802)"
font-family="Ubuntu" font-size="11" font-weight="400" font-style="normal" 
>
<rect x="-0.0016" y="-187.34" width="383.875" height="188.812"/>
</g>

<g fill="none" stroke="#000000" stroke-opacity="1" stroke-width="1" stroke-linecap="square" stroke-linejoin="bevel" transform="matrix(2.00065,0,0,2.00065,0.00320104,374.802)"
font-family="Ubuntu" font-size="11" font-weight="400" font-style="normal" 
>
</g>

<g fill="none" stroke="#000000" stroke-opacity="1" stroke-width="1" stroke-linecap="square" stroke-linejoin="bevel" transform="matrix(2.00065,0,0,2.00065,0.00320104,374.802)"
font-family="Ubuntu" font-size="11" font-weight="400" font-style="normal" 
>
</g>

<g fill="none" stroke="#000000" stroke-opacity="1" stroke-width="1" stroke-linecap="square" stroke-linejoin="bevel" transform="matrix(2.00065,0,0,2.00065,0.00320104,374.802)"
font-family="Ubuntu" font-size="11" font-weight="400" font-style="normal" 
>
</g>

<g fill="none" stroke="#000000" stroke-opacity="1" stroke-width="1" stroke-linecap="square" stroke-linejoin="bevel" transform="matrix(2.00065,0,0,2.00065,0.00320104,374.802)"
font-family="Ubuntu" font-size="11" font-weight="400" font-style="normal" 
>
</g>

<g fill="none" stroke="#000000" stroke-opacity="1" stroke-width="1" stroke-linecap="square" stroke-linejoin="round" transform="matrix(2.00065,0,0,2.00065,0.00320104,374.802)"
font-family="Ubuntu" font-size="11" font-weight="400" font-style="normal" 
>
<ellipse cx="292.88" cy="-31.345" rx="90.4936" ry="17.5"/>
</g>

<g fill="none" stroke="#000000" stroke-opacity="1" stroke-width="1" stroke-linecap="square" stroke-linejoin="bevel" transform="matrix(2.00065,0,0,2.00065,0.00320104,374.802)"
font-family="Ubuntu" font-size="11" font-weight="400" font-style="normal" 
>
</g>

<g fill="none" stroke="#000000" stroke-opacity="1" stroke-width="1" stroke-linecap="square" stroke-linejoin="bevel" transform="matrix(2.00065,0,0,2.00065,469.275,295.086)"
font-family="Ubuntu" font-size="11" font-weight="400" font-style="normal" 
>
</g>

<g fill="none" stroke="#000000" stroke-opacity="1" stroke-width="1" stroke-linecap="square" stroke-linejoin="bevel" transform="matrix(2.00065,0,0,2.00065,469.275,295.086)"
font-family="sans" font-size="11" font-weight="100" font-style="normal" 
>
</g>

<g fill="#000000" fill-opacity="1" stroke="#000000" stroke-opacity="1" stroke-width="1" stroke-linecap="square" stroke-linejoin="round" transform="matrix(2.00065,0,0,2.00065,469.275,295.086)"
font-family="sans" font-size="11" font-weight="100" font-style="normal" 
>
<path vector-effect="none" fill-rule="nonzero" d="M0.109375,14.9531 L0.625,14.9531 L4.25,4.35938 L3.73438,4.35938 L0.109375,14.9531 M7.25,13.1406 C7.51562,13.1406 7.89062,13.0469 8.23438,12.9219 L8.07812,12.4219 C7.85938,12.5156 7.57812,12.5938 7.35938,12.5938 C6.57812,12.5938 6.375,12.1094 6.375,11.375 L6.375,7.67188 L8.0625,7.67188 L8.0625,7.14062 L6.375,7.14062 L6.375,5.4375 L5.84375,5.4375 L5.76562,7.14062 L4.82812,7.1875 L4.82812,7.67188 L5.75,7.67188 L5.75,11.3281 C5.75,12.4219 6.09375,13.1406 7.25,13.1406 M11.1406,13.1406 C11.9531,13.1406 12.5469,12.6875 13.125,12.0312 L13.1562,12.0312 L13.2188,13 L13.75,13 L13.75,7.14062 L13.1094,7.14062 L13.1094,11.4219 C12.4531,12.2188 11.9688,12.5781 11.2812,12.5781 C10.3906,12.5781 10.0156,12.0156 10.0156,10.8125 L10.0156,7.14062 L9.375,7.14062 L9.375,10.8906 C9.375,12.3906 9.92188,13.1406 11.1406,13.1406 M15.9375,13 L16.5781,13 L16.5781,9.0625 C17.0156,7.96875 17.6406,7.59375 18.1562,7.59375 C18.3906,7.59375 18.5,7.60938 18.6875,7.6875 L18.8281,7.10938 C18.6406,7.01562 18.4688,6.98438 18.2344,6.98438 C17.5469,6.98438 16.9688,7.48438 16.5781,8.21875 L16.5469,8.21875 L16.4688,7.14062 L15.9375,7.14062 L15.9375,13 M21.5312,13.1406 C21.7969,13.1406 22.1719,13.0469 22.5156,12.9219 L22.3594,12.4219 C22.1406,12.5156 21.8594,12.5938 21.6406,12.5938 C20.8594,12.5938 20.6562,12.1094 20.6562,11.375 L20.6562,7.67188 L22.3438,7.67188 L22.3438,7.14062 L20.6562,7.14062 L20.6562,5.4375 L20.125,5.4375 L20.0469,7.14062 L19.1094,7.1875 L19.1094,7.67188 L20.0312,7.67188 L20.0312,11.3281 C20.0312,12.4219 20.375,13.1406 21.5312,13.1406 M24.5156,13.1406 C24.7344,13.1406 24.8438,13.1094 24.9531,13.0781 L24.8594,12.5781 C24.7344,12.5938 24.6875,12.5938 24.6406,12.5938 C24.4844,12.5938 24.375,12.4688 24.375,12.2031 L24.375,4.25 L23.7344,4.25 L23.7344,12.125 C23.7344,12.8125 24,13.1406 24.5156,13.1406 M28.9062,13.1406 C29.75,13.1406 30.2969,12.875 30.7812,12.5781 L30.5312,12.0938 C30.0938,12.4062 29.5938,12.6094 28.9688,12.6094 C27.7031,12.6094 26.8594,11.6094 26.8281,10.1719 L30.9844,10.1719 C31.0156,10.0312 31.0156,9.875 31.0156,9.70312 C31.0156,8 30.1719,6.98438 28.75,6.98438 C27.4219,6.98438 26.1719,8.17188 26.1719,10.0781 C26.1719,12 27.4062,13.1406 28.9062,13.1406 M26.8281,9.67188 C26.9531,8.32812 27.8125,7.53125 28.7656,7.53125 C29.7812,7.53125 30.4375,8.25 30.4375,9.67188 L26.8281,9.67188 M34.9219,13.1406 C36.2969,13.1406 37.5156,11.9844 37.5156,9.96875 C37.5156,8.17188 36.7188,6.98438 35.1562,6.98438 C34.4531,6.98438 33.75,7.39062 33.1719,7.89062 L33.2031,6.76562 L33.2031,4.25 L32.5625,4.25 L32.5625,13 L33.0938,13 L33.1562,12.4062 L33.1875,12.4062 C33.7188,12.8594 34.375,13.1406 34.9219,13.1406 M34.875,12.5781 C34.4375,12.5781 33.8125,12.3906 33.2031,11.8594 L33.2031,8.48438 C33.8594,7.875 34.4688,7.54688 35.0312,7.54688 C36.3438,7.54688 36.8281,8.5625 36.8281,9.96875 C36.8281,11.5469 36.0156,12.5781 34.875,12.5781 M41.3594,13.1406 C42.7812,13.1406 44.0156,12.0156 44.0156,10.0781 C44.0156,8.10938 42.7812,6.98438 41.3594,6.98438 C39.9375,6.98438 38.7031,8.10938 38.7031,10.0781 C38.7031,12.0156 39.9375,13.1406 41.3594,13.1406 M41.3594,12.5938 C40.2188,12.5938 39.375,11.5625 39.375,10.0781 C39.375,8.57812 40.2188,7.54688 41.3594,7.54688 C42.5,7.54688 43.3594,8.57812 43.3594,10.0781 C43.3594,11.5625 42.5,12.5938 41.3594,12.5938 M47.2188,13.1406 C47.4844,13.1406 47.8594,13.0469 48.2031,12.9219 L48.0469,12.4219 C47.8281,12.5156 47.5469,12.5938 47.3281,12.5938 C46.5469,12.5938 46.3438,12.1094 46.3438,11.375 L46.3438,7.67188 L48.0312,7.67188 L48.0312,7.14062 L46.3438,7.14062 L46.3438,5.4375 L45.8125,5.4375 L45.7344,7.14062 L44.7969,7.1875 L44.7969,7.67188 L45.7188,7.67188 L45.7188,11.3281 C45.7188,12.4219 46.0625,13.1406 47.2188,13.1406 M51.1719,13.1406 C52.5312,13.1406 53.5938,12.2812 53.5938,10.875 C53.5938,9.75 52.7969,9.01562 51.8281,8.8125 L51.8281,8.75 C52.6875,8.46875 53.2969,7.8125 53.2969,6.76562 C53.2969,5.53125 52.3594,4.84375 51.1406,4.82812 C50.2188,4.84375 49.5312,5.25 48.9844,5.76562 L49.3594,6.21875 C49.7969,5.73438 50.4219,5.375 51.125,5.35938 C52.0469,5.375 52.6406,5.95312 52.6406,6.8125 C52.6406,7.78125 52.0312,8.53125 50.2656,8.53125 L50.2656,9.07812 C52.1719,9.07812 52.9219,9.79688 52.9219,10.875 C52.9219,11.9062 52.1719,12.5938 51.1406,12.5938 C50.125,12.5938 49.5,12.1094 49.0312,11.6094 L48.6719,12.0469 C49.1719,12.5781 49.9219,13.1406 51.1719,13.1406 M54.3438,14.4531 L60.1562,14.4531 L60.1562,13.9375 L54.3438,13.9375 L54.3438,14.4531 M63.3438,13.1406 C64.1094,13.1406 64.75,12.7344 65.2188,12.2656 L65.25,12.2656 L65.3281,13 L65.8594,13 L65.8594,4.25 L65.2188,4.25 L65.2188,6.64062 L65.2656,7.70312 C64.6875,7.25 64.2188,6.98438 63.5156,6.98438 C62.125,6.98438 60.9062,8.1875 60.9062,10.0781 C60.9062,12.0469 61.875,13.1406 63.3438,13.1406 M63.4531,12.5781 C62.2656,12.5781 61.5938,11.5938 61.5938,10.0781 C61.5938,8.625 62.4531,7.54688 63.5781,7.54688 C64.125,7.54688 64.625,7.73438 65.2188,8.26562 L65.2188,11.6562 C64.625,12.2656 64.0781,12.5781 63.4531,12.5781 M68.0312,13 L68.6719,13 L68.6719,7.14062 L68.0312,7.14062 L68.0312,13 M68.375,5.76562 C68.6562,5.76562 68.9062,5.54688 68.9062,5.25 C68.9062,4.92188 68.6562,4.73438 68.375,4.73438 C68.0781,4.73438 67.8281,4.92188 67.8281,5.25 C67.8281,5.54688 68.0781,5.76562 68.375,5.76562 M72.1406,13.1406 C72.8906,13.1406 73.5938,12.7344 74.1875,12.25 L74.2188,12.25 L74.2812,13 L74.8281,13 L74.8281,9.28125 C74.8281,7.98438 74.3281,6.98438 72.9219,6.98438 C71.9688,6.98438 71.1562,7.4375 70.7031,7.75 L71,8.21875 C71.4062,7.90625 72.0781,7.54688 72.8438,7.54688 C73.9531,7.54688 74.2031,8.45312 74.1875,9.3125 C71.5938,9.60938 70.4375,10.2344 70.4375,11.5312 C70.4375,12.6094 71.2031,13.1406 72.1406,13.1406 M72.2812,12.6094 C71.625,12.6094 71.0781,12.2969 71.0781,11.5 C71.0781,10.5938 71.875,10.0469 74.1875,9.78125 L74.1875,11.6875 C73.4844,12.2969 72.9219,12.6094 72.2812,12.6094 M78.7969,15.7969 C80.5,15.7969 81.6094,14.8281 81.6094,13.7969 C81.6094,12.875 80.9844,12.4531 79.6562,12.4531 L78.4219,12.4531 C77.5625,12.4531 77.3125,12.125 77.3125,11.7188 C77.3125,11.3438 77.5312,11.0938 77.7812,10.9062 C78.0469,11.0469 78.4062,11.1406 78.7188,11.1406 C79.875,11.1406 80.7969,10.2812 80.7969,9.07812 C80.7969,8.48438 80.5469,7.96875 80.1875,7.67188 L81.5156,7.67188 L81.5156,7.14062 L79.5,7.14062 C79.3125,7.0625 79.0469,6.98438 78.7188,6.98438 C77.5625,6.98438 76.625,7.84375 76.625,9.0625 C76.625,9.76562 77,10.3438 77.375,10.6562 L77.375,10.7031 C77.1094,10.9062 76.7188,11.2812 76.7188,11.7969 C76.7188,12.25 76.9531,12.5625 77.25,12.7344 L77.25,12.7969 C76.7188,13.1562 76.375,13.6719 76.375,14.1875 C76.375,15.1719 77.3281,15.7969 78.7969,15.7969 M78.7188,10.6562 C77.9375,10.6562 77.2656,10.0156 77.2656,9.0625 C77.2656,8.09375 77.9219,7.5 78.7188,7.5 C79.5156,7.5 80.1719,8.09375 80.1719,9.0625 C80.1719,10.0156 79.5,10.6562 78.7188,10.6562 M78.875,15.3125 C77.6719,15.3125 76.9688,14.8281 76.9688,14.1094 C76.9688,13.7188 77.2031,13.2812 77.7031,12.9375 C78,13 78.3125,13.0312 78.4375,13.0312 L79.6406,13.0312 C80.5,13.0312 80.9688,13.2656 80.9688,13.8906 C80.9688,14.5938 80.1406,15.3125 78.875,15.3125 M82.8281,13 L83.4688,13 L83.4688,8.60938 C84.1562,7.90625 84.6406,7.54688 85.3281,7.54688 C86.2188,7.54688 86.6094,8.10938 86.6094,9.34375 L86.6094,13 L87.25,13 L87.25,9.25 C87.25,7.73438 86.6875,6.98438 85.4688,6.98438 C84.6562,6.98438 84.0625,7.4375 83.4688,8.03125 L83.4375,8.03125 L83.3594,7.14062 L82.8281,7.14062 L82.8281,13 M91.5156,13.1406 C92.9375,13.1406 94.1719,12.0156 94.1719,10.0781 C94.1719,8.10938 92.9375,6.98438 91.5156,6.98438 C90.0938,6.98438 88.8594,8.10938 88.8594,10.0781 C88.8594,12.0156 90.0938,13.1406 91.5156,13.1406 M91.5156,12.5938 C90.375,12.5938 89.5312,11.5625 89.5312,10.0781 C89.5312,8.57812 90.375,7.54688 91.5156,7.54688 C92.6562,7.54688 93.5156,8.57812 93.5156,10.0781 C93.5156,11.5625 92.6562,12.5938 91.5156,12.5938 M97.3281,13.1406 C98.625,13.1406 99.3281,12.375 99.3281,11.4688 C99.3281,10.3438 98.3438,10.0156 97.4375,9.67188 C96.7656,9.42188 96.0781,9.1875 96.0781,8.53125 C96.0781,8 96.4688,7.51562 97.3438,7.51562 C97.9219,7.51562 98.3438,7.75 98.7344,8.04688 L99.0781,7.60938 C98.625,7.25 98,6.98438 97.3594,6.98438 C96.1406,6.98438 95.4375,7.70312 95.4375,8.5625 C95.4375,9.57812 96.4062,9.9375 97.2812,10.25 C97.9531,10.4844 98.7031,10.8125 98.7031,11.5 C98.7031,12.1094 98.25,12.6094 97.3594,12.6094 C96.5469,12.6094 96.0156,12.3125 95.5,11.875 L95.1719,12.3438 C95.6875,12.7812 96.4688,13.1406 97.3281,13.1406 M102.266,13.1406 C102.531,13.1406 102.906,13.0469 103.25,12.9219 L103.094,12.4219 C102.875,12.5156 102.594,12.5938 102.375,12.5938 C101.594,12.5938 101.391,12.1094 101.391,11.375 L101.391,7.67188 L103.078,7.67188 L103.078,7.14062 L101.391,7.14062 L101.391,5.4375 L100.859,5.4375 L100.781,7.14062 L99.8438,7.1875 L99.8438,7.67188 L100.766,7.67188 L100.766,11.3281 C100.766,12.4219 101.109,13.1406 102.266,13.1406 M104.469,13 L105.109,13 L105.109,7.14062 L104.469,7.14062 L104.469,13 M104.812,5.76562 C105.094,5.76562 105.344,5.54688 105.344,5.25 C105.344,4.92188 105.094,4.73438 104.812,4.73438 C104.516,4.73438 104.266,4.92188 104.266,5.25 C104.266,5.54688 104.516,5.76562 104.812,5.76562 M109.484,13.1406 C110.219,13.1406 110.859,12.8281 111.359,12.3906 L111.047,11.9375 C110.656,12.2969 110.125,12.5938 109.516,12.5938 C108.281,12.5938 107.469,11.5625 107.469,10.0781 C107.469,8.57812 108.359,7.54688 109.531,7.54688 C110.078,7.54688 110.516,7.79688 110.875,8.14062 L111.234,7.70312 C110.828,7.32812 110.297,6.98438 109.516,6.98438 C108.062,6.98438 106.797,8.10938 106.797,10.0781 C106.797,12.0156 107.953,13.1406 109.484,13.1406 M114.219,13.1406 C115.516,13.1406 116.219,12.375 116.219,11.4688 C116.219,10.3438 115.234,10.0156 114.328,9.67188 C113.656,9.42188 112.969,9.1875 112.969,8.53125 C112.969,8 113.359,7.51562 114.234,7.51562 C114.812,7.51562 115.234,7.75 115.625,8.04688 L115.969,7.60938 C115.516,7.25 114.891,6.98438 114.25,6.98438 C113.031,6.98438 112.328,7.70312 112.328,8.5625 C112.328,9.57812 113.297,9.9375 114.172,10.25 C114.844,10.4844 115.594,10.8125 115.594,11.5 C115.594,12.1094 115.141,12.6094 114.25,12.6094 C113.438,12.6094 112.906,12.3125 112.391,11.875 L112.062,12.3438 C112.578,12.7812 113.359,13.1406 114.219,13.1406 "/>
</g>

<g fill="none" stroke="#000000" stroke-opacity="1" stroke-width="1" stroke-linecap="square" stroke-linejoin="bevel" transform="matrix(2.00065,0,0,2.00065,469.275,295.086)"
font-family="sans" font-size="11" font-weight="100" font-style="normal" 
>
</g>

<g fill="none" stroke="#000000" stroke-opacity="1" stroke-width="1" stroke-linecap="square" stroke-linejoin="bevel" transform="matrix(2.00065,0,0,2.00065,469.275,295.086)"
font-family="Ubuntu" font-size="11" font-weight="400" font-style="normal" 
>
</g>

<g fill="none" stroke="#000000" stroke-opacity="1" stroke-width="1" stroke-linecap="square" stroke-linejoin="bevel" transform="matrix(2.00065,0,0,2.00065,0.00320104,374.802)"
font-family="Ubuntu" font-size="11" font-weight="400" font-style="normal" 
>
</g>

<g fill="none" stroke="#000000" stroke-opacity="1" stroke-width="1" stroke-linecap="square" stroke-linejoin="bevel" transform="matrix(2.00065,0,0,2.00065,0.00320104,374.802)"
font-family="Ubuntu" font-size="11" font-weight="400" font-style="normal" 
>
</g>

<g fill="none" stroke="#000000" stroke-opacity="1" stroke-width="1" stroke-linecap="square" stroke-linejoin="bevel" transform="matrix(2.00065,0,0,2.00065,0.00320104,374.802)"
font-family="Ubuntu" font-size="11" font-weight="400" font-style="normal" 
>
</g>

<g fill="none" stroke="#000000" stroke-opacity="1" stroke-width="1" stroke-linecap="square" stroke-linejoin="round" transform="matrix(2.00065,0,0,2.00065,0.00320104,374.802)"
font-family="Ubuntu" font-size="11" font-weight="400" font-style="normal" 
>
<ellipse cx="66.944" cy="-115.34" rx="66.4456" ry="17.5"/>
</g>

<g fill="none" stroke="#000000" stroke-opacity="1" stroke-width="1" stroke-linecap="square" stroke-linejoin="bevel" transform="matrix(2.00065,0,0,2.00065,0.00320104,374.802)"
font-family="Ubuntu" font-size="11" font-weight="400" font-style="normal" 
>
</g>

<g fill="none" stroke="#000000" stroke-opacity="1" stroke-width="1" stroke-linecap="square" stroke-linejoin="bevel" transform="matrix(2.00065,0,0,2.00065,52.08,127.041)"
font-family="Ubuntu" font-size="11" font-weight="400" font-style="normal" 
>
</g>

<g fill="none" stroke="#000000" stroke-opacity="1" stroke-width="1" stroke-linecap="square" stroke-linejoin="bevel" transform="matrix(2.00065,0,0,2.00065,52.08,127.041)"
font-family="sans" font-size="11" font-weight="100" font-style="normal" 
>
</g>

<g fill="#000000" fill-opacity="1" stroke="#000000" stroke-opacity="1" stroke-width="1" stroke-linecap="square" stroke-linejoin="round" transform="matrix(2.00065,0,0,2.00065,52.08,127.041)"
font-family="sans" font-size="11" font-weight="100" font-style="normal" 
>
<path vector-effect="none" fill-rule="nonzero" d="M0.109375,14.9531 L0.625,14.9531 L4.25,4.35938 L3.73438,4.35938 L0.109375,14.9531 M7.25,13.1406 C7.51562,13.1406 7.89062,13.0469 8.23438,12.9219 L8.07812,12.4219 C7.85938,12.5156 7.57812,12.5938 7.35938,12.5938 C6.57812,12.5938 6.375,12.1094 6.375,11.375 L6.375,7.67188 L8.0625,7.67188 L8.0625,7.14062 L6.375,7.14062 L6.375,5.4375 L5.84375,5.4375 L5.76562,7.14062 L4.82812,7.1875 L4.82812,7.67188 L5.75,7.67188 L5.75,11.3281 C5.75,12.4219 6.09375,13.1406 7.25,13.1406 M11.1406,13.1406 C11.9531,13.1406 12.5469,12.6875 13.125,12.0312 L13.1562,12.0312 L13.2188,13 L13.75,13 L13.75,7.14062 L13.1094,7.14062 L13.1094,11.4219 C12.4531,12.2188 11.9688,12.5781 11.2812,12.5781 C10.3906,12.5781 10.0156,12.0156 10.0156,10.8125 L10.0156,7.14062 L9.375,7.14062 L9.375,10.8906 C9.375,12.3906 9.92188,13.1406 11.1406,13.1406 M15.9375,13 L16.5781,13 L16.5781,9.0625 C17.0156,7.96875 17.6406,7.59375 18.1562,7.59375 C18.3906,7.59375 18.5,7.60938 18.6875,7.6875 L18.8281,7.10938 C18.6406,7.01562 18.4688,6.98438 18.2344,6.98438 C17.5469,6.98438 16.9688,7.48438 16.5781,8.21875 L16.5469,8.21875 L16.4688,7.14062 L15.9375,7.14062 L15.9375,13 M21.5312,13.1406 C21.7969,13.1406 22.1719,13.0469 22.5156,12.9219 L22.3594,12.4219 C22.1406,12.5156 21.8594,12.5938 21.6406,12.5938 C20.8594,12.5938 20.6562,12.1094 20.6562,11.375 L20.6562,7.67188 L22.3438,7.67188 L22.3438,7.14062 L20.6562,7.14062 L20.6562,5.4375 L20.125,5.4375 L20.0469,7.14062 L19.1094,7.1875 L19.1094,7.67188 L20.0312,7.67188 L20.0312,11.3281 C20.0312,12.4219 20.375,13.1406 21.5312,13.1406 M24.5156,13.1406 C24.7344,13.1406 24.8438,13.1094 24.9531,13.0781 L24.8594,12.5781 C24.7344,12.5938 24.6875,12.5938 24.6406,12.5938 C24.4844,12.5938 24.375,12.4688 24.375,12.2031 L24.375,4.25 L23.7344,4.25 L23.7344,12.125 C23.7344,12.8125 24,13.1406 24.5156,13.1406 M28.9062,13.1406 C29.75,13.1406 30.2969,12.875 30.7812,12.5781 L30.5312,12.0938 C30.0938,12.4062 29.5938,12.6094 28.9688,12.6094 C27.7031,12.6094 26.8594,11.6094 26.8281,10.1719 L30.9844,10.1719 C31.0156,10.0312 31.0156,9.875 31.0156,9.70312 C31.0156,8 30.1719,6.98438 28.75,6.98438 C27.4219,6.98438 26.1719,8.17188 26.1719,10.0781 C26.1719,12 27.4062,13.1406 28.9062,13.1406 M26.8281,9.67188 C26.9531,8.32812 27.8125,7.53125 28.7656,7.53125 C29.7812,7.53125 30.4375,8.25 30.4375,9.67188 L26.8281,9.67188 M34.9219,13.1406 C36.2969,13.1406 37.5156,11.9844 37.5156,9.96875 C37.5156,8.17188 36.7188,6.98438 35.1562,6.98438 C34.4531,6.98438 33.75,7.39062 33.1719,7.89062 L33.2031,6.76562 L33.2031,4.25 L32.5625,4.25 L32.5625,13 L33.0938,13 L33.1562,12.4062 L33.1875,12.4062 C33.7188,12.8594 34.375,13.1406 34.9219,13.1406 M34.875,12.5781 C34.4375,12.5781 33.8125,12.3906 33.2031,11.8594 L33.2031,8.48438 C33.8594,7.875 34.4688,7.54688 35.0312,7.54688 C36.3438,7.54688 36.8281,8.5625 36.8281,9.96875 C36.8281,11.5469 36.0156,12.5781 34.875,12.5781 M41.3594,13.1406 C42.7812,13.1406 44.0156,12.0156 44.0156,10.0781 C44.0156,8.10938 42.7812,6.98438 41.3594,6.98438 C39.9375,6.98438 38.7031,8.10938 38.7031,10.0781 C38.7031,12.0156 39.9375,13.1406 41.3594,13.1406 M41.3594,12.5938 C40.2188,12.5938 39.375,11.5625 39.375,10.0781 C39.375,8.57812 40.2188,7.54688 41.3594,7.54688 C42.5,7.54688 43.3594,8.57812 43.3594,10.0781 C43.3594,11.5625 42.5,12.5938 41.3594,12.5938 M47.2188,13.1406 C47.4844,13.1406 47.8594,13.0469 48.2031,12.9219 L48.0469,12.4219 C47.8281,12.5156 47.5469,12.5938 47.3281,12.5938 C46.5469,12.5938 46.3438,12.1094 46.3438,11.375 L46.3438,7.67188 L48.0312,7.67188 L48.0312,7.14062 L46.3438,7.14062 L46.3438,5.4375 L45.8125,5.4375 L45.7344,7.14062 L44.7969,7.1875 L44.7969,7.67188 L45.7188,7.67188 L45.7188,11.3281 C45.7188,12.4219 46.0625,13.1406 47.2188,13.1406 M51.1719,13.1406 C52.5312,13.1406 53.5938,12.2812 53.5938,10.875 C53.5938,9.75 52.7969,9.01562 51.8281,8.8125 L51.8281,8.75 C52.6875,8.46875 53.2969,7.8125 53.2969,6.76562 C53.2969,5.53125 52.3594,4.84375 51.1406,4.82812 C50.2188,4.84375 49.5312,5.25 48.9844,5.76562 L49.3594,6.21875 C49.7969,5.73438 50.4219,5.375 51.125,5.35938 C52.0469,5.375 52.6406,5.95312 52.6406,6.8125 C52.6406,7.78125 52.0312,8.53125 50.2656,8.53125 L50.2656,9.07812 C52.1719,9.07812 52.9219,9.79688 52.9219,10.875 C52.9219,11.9062 52.1719,12.5938 51.1406,12.5938 C50.125,12.5938 49.5,12.1094 49.0312,11.6094 L48.6719,12.0469 C49.1719,12.5781 49.9219,13.1406 51.1719,13.1406 M54.3438,14.4531 L60.1562,14.4531 L60.1562,13.9375 L54.3438,13.9375 L54.3438,14.4531 M63.5938,13.1406 C64.3281,13.1406 64.9688,12.8281 65.4688,12.3906 L65.1562,11.9375 C64.7656,12.2969 64.2344,12.5938 63.625,12.5938 C62.3906,12.5938 61.5781,11.5625 61.5781,10.0781 C61.5781,8.57812 62.4688,7.54688 63.6406,7.54688 C64.1875,7.54688 64.625,7.79688 64.9844,8.14062 L65.3438,7.70312 C64.9375,7.32812 64.4062,6.98438 63.625,6.98438 C62.1719,6.98438 60.9062,8.10938 60.9062,10.0781 C60.9062,12.0156 62.0625,13.1406 63.5938,13.1406 M68.8281,13.1406 C70.25,13.1406 71.4844,12.0156 71.4844,10.0781 C71.4844,8.10938 70.25,6.98438 68.8281,6.98438 C67.4062,6.98438 66.1719,8.10938 66.1719,10.0781 C66.1719,12.0156 67.4062,13.1406 68.8281,13.1406 M68.8281,12.5938 C67.6875,12.5938 66.8438,11.5625 66.8438,10.0781 C66.8438,8.57812 67.6875,7.54688 68.8281,7.54688 C69.9688,7.54688 70.8281,8.57812 70.8281,10.0781 C70.8281,11.5625 69.9688,12.5938 68.8281,12.5938 M73.1875,13 L73.8281,13 L73.8281,9.0625 C74.2656,7.96875 74.8906,7.59375 75.4062,7.59375 C75.6406,7.59375 75.75,7.60938 75.9375,7.6875 L76.0781,7.10938 C75.8906,7.01562 75.7188,6.98438 75.4844,6.98438 C74.7969,6.98438 74.2188,7.48438 73.8281,8.21875 L73.7969,8.21875 L73.7188,7.14062 L73.1875,7.14062 L73.1875,13 M79.2656,13.1406 C80.1094,13.1406 80.6562,12.875 81.1406,12.5781 L80.8906,12.0938 C80.4531,12.4062 79.9531,12.6094 79.3281,12.6094 C78.0625,12.6094 77.2188,11.6094 77.1875,10.1719 L81.3438,10.1719 C81.375,10.0312 81.375,9.875 81.375,9.70312 C81.375,8 80.5312,6.98438 79.1094,6.98438 C77.7812,6.98438 76.5312,8.17188 76.5312,10.0781 C76.5312,12 77.7656,13.1406 79.2656,13.1406 M77.1875,9.67188 C77.3125,8.32812 78.1719,7.53125 79.125,7.53125 C80.1406,7.53125 80.7969,8.25 80.7969,9.67188 L77.1875,9.67188"/>
</g>

<g fill="none" stroke="#000000" stroke-opacity="1" stroke-width="1" stroke-linecap="square" stroke-linejoin="bevel" transform="matrix(2.00065,0,0,2.00065,52.08,127.041)"
font-family="sans" font-size="11" font-weight="100" font-style="normal" 
>
</g>

<g fill="none" stroke="#000000" stroke-opacity="1" stroke-width="1" stroke-linecap="square" stroke-linejoin="bevel" transform="matrix(2.00065,0,0,2.00065,52.08,127.041)"
font-family="Ubuntu" font-size="11" font-weight="400" font-style="normal" 
>
</g>

<g fill="none" stroke="#000000" stroke-opacity="1" stroke-width="1" stroke-linecap="square" stroke-linejoin="bevel" transform="matrix(2.00065,0,0,2.00065,0.00320104,374.802)"
font-family="Ubuntu" font-size="11" font-weight="400" font-style="normal" 
>
</g>

<g fill="none" stroke="#000000" stroke-opacity="1" stroke-width="1" stroke-linecap="square" stroke-linejoin="bevel" transform="matrix(2.00065,0,0,2.00065,0.00320104,374.802)"
font-family="Ubuntu" font-size="11" font-weight="400" font-style="normal" 
>
</g>

<g fill="none" stroke="#000000" stroke-opacity="1" stroke-width="1" stroke-linecap="square" stroke-linejoin="bevel" transform="matrix(2.00065,0,0,2.00065,0.00320104,374.802)"
font-family="Ubuntu" font-size="11" font-weight="400" font-style="normal" 
>
</g>

<g fill="none" stroke="#000000" stroke-opacity="1" stroke-width="1" stroke-linecap="square" stroke-linejoin="round" transform="matrix(2.00065,0,0,2.00065,0.00320104,374.802)"
font-family="Ubuntu" font-size="11" font-weight="400" font-style="normal" 
>
<ellipse cx="66.944" cy="-169.34" rx="66.4456" ry="17.5"/>
</g>

<g fill="none" stroke="#000000" stroke-opacity="1" stroke-width="1" stroke-linecap="square" stroke-linejoin="bevel" transform="matrix(2.00065,0,0,2.00065,0.00320104,374.802)"
font-family="Ubuntu" font-size="11" font-weight="400" font-style="normal" 
>
</g>

<g fill="none" stroke="#000000" stroke-opacity="1" stroke-width="1" stroke-linecap="square" stroke-linejoin="bevel" transform="matrix(2.00065,0,0,2.00065,52.4395,19.0062)"
font-family="Ubuntu" font-size="11" font-weight="400" font-style="normal" 
>
</g>

<g fill="none" stroke="#000000" stroke-opacity="1" stroke-width="1" stroke-linecap="square" stroke-linejoin="bevel" transform="matrix(2.00065,0,0,2.00065,52.4395,19.0062)"
font-family="sans" font-size="11" font-weight="100" font-style="normal" 
>
</g>

<g fill="#000000" fill-opacity="1" stroke="#000000" stroke-opacity="1" stroke-width="1" stroke-linecap="square" stroke-linejoin="round" transform="matrix(2.00065,0,0,2.00065,52.4395,19.0062)"
font-family="sans" font-size="11" font-weight="100" font-style="normal" 
>
<path vector-effect="none" fill-rule="nonzero" d="M0.109375,14.9531 L0.625,14.9531 L4.25,4.35938 L3.73438,4.35938 L0.109375,14.9531 M5.42188,13 L6.0625,13 L6.0625,9.0625 C6.5,7.96875 7.125,7.59375 7.64062,7.59375 C7.875,7.59375 7.98438,7.60938 8.17188,7.6875 L8.3125,7.10938 C8.125,7.01562 7.95312,6.98438 7.71875,6.98438 C7.03125,6.98438 6.45312,7.48438 6.0625,8.21875 L6.03125,8.21875 L5.95312,7.14062 L5.42188,7.14062 L5.42188,13 M10.4062,13.1406 C11.1562,13.1406 11.8594,12.7344 12.4531,12.25 L12.4844,12.25 L12.5469,13 L13.0938,13 L13.0938,9.28125 C13.0938,7.98438 12.5938,6.98438 11.1875,6.98438 C10.2344,6.98438 9.42188,7.4375 8.96875,7.75 L9.26562,8.21875 C9.67188,7.90625 10.3438,7.54688 11.1094,7.54688 C12.2188,7.54688 12.4688,8.45312 12.4531,9.3125 C9.85938,9.60938 8.70312,10.2344 8.70312,11.5312 C8.70312,12.6094 9.46875,13.1406 10.4062,13.1406 M10.5469,12.6094 C9.89062,12.6094 9.34375,12.2969 9.34375,11.5 C9.34375,10.5938 10.1406,10.0469 12.4531,9.78125 L12.4531,11.6875 C11.75,12.2969 11.1875,12.6094 10.5469,12.6094 M16.5781,13.1406 C17.875,13.1406 18.5781,12.375 18.5781,11.4688 C18.5781,10.3438 17.5938,10.0156 16.6875,9.67188 C16.0156,9.42188 15.3281,9.1875 15.3281,8.53125 C15.3281,8 15.7188,7.51562 16.5938,7.51562 C17.1719,7.51562 17.5938,7.75 17.9844,8.04688 L18.3281,7.60938 C17.875,7.25 17.25,6.98438 16.6094,6.98438 C15.3906,6.98438 14.6875,7.70312 14.6875,8.5625 C14.6875,9.57812 15.6562,9.9375 16.5312,10.25 C17.2031,10.4844 17.9531,10.8125 17.9531,11.5 C17.9531,12.1094 17.5,12.6094 16.6094,12.6094 C15.7969,12.6094 15.2656,12.3125 14.75,11.875 L14.4219,12.3438 C14.9375,12.7812 15.7188,13.1406 16.5781,13.1406 M20.0938,15.625 L20.7344,15.625 L20.7344,13.5 L20.7344,12.4219 C21.3281,12.8906 21.9062,13.1406 22.4531,13.1406 C23.8281,13.1406 25.0469,11.9844 25.0469,9.96875 C25.0469,8.17188 24.25,6.98438 22.6875,6.98438 C21.9688,6.98438 21.2969,7.40625 20.7344,7.84375 L20.7031,7.84375 L20.625,7.14062 L20.0938,7.14062 L20.0938,15.625 M22.4062,12.5781 C21.9688,12.5781 21.3594,12.3906 20.7344,11.8594 L20.7344,8.48438 C21.4219,7.875 22,7.54688 22.5625,7.54688 C23.875,7.54688 24.3594,8.5625 24.3594,9.96875 C24.3594,11.5469 23.5469,12.5781 22.4062,12.5781 M26.7344,13 L27.375,13 L27.375,7.14062 L26.7344,7.14062 L26.7344,13 M27.0781,5.76562 C27.3594,5.76562 27.6094,5.54688 27.6094,5.25 C27.6094,4.92188 27.3594,4.73438 27.0781,4.73438 C26.7812,4.73438 26.5312,4.92188 26.5312,5.25 C26.5312,5.54688 26.7812,5.76562 27.0781,5.76562 M31.75,13.1406 C32.4844,13.1406 33.125,12.8281 33.625,12.3906 L33.3125,11.9375 C32.9219,12.2969 32.3906,12.5938 31.7812,12.5938 C30.5469,12.5938 29.7344,11.5625 29.7344,10.0781 C29.7344,8.57812 30.625,7.54688 31.7969,7.54688 C32.3438,7.54688 32.7812,7.79688 33.1406,8.14062 L33.5,7.70312 C33.0938,7.32812 32.5625,6.98438 31.7812,6.98438 C30.3281,6.98438 29.0625,8.10938 29.0625,10.0781 C29.0625,12.0156 30.2188,13.1406 31.75,13.1406 M36.2188,13.1406 C36.9688,13.1406 37.6719,12.7344 38.2656,12.25 L38.2969,12.25 L38.3594,13 L38.9062,13 L38.9062,9.28125 C38.9062,7.98438 38.4062,6.98438 37,6.98438 C36.0469,6.98438 35.2344,7.4375 34.7812,7.75 L35.0781,8.21875 C35.4844,7.90625 36.1562,7.54688 36.9219,7.54688 C38.0312,7.54688 38.2812,8.45312 38.2656,9.3125 C35.6719,9.60938 34.5156,10.2344 34.5156,11.5312 C34.5156,12.6094 35.2812,13.1406 36.2188,13.1406 M36.3594,12.6094 C35.7031,12.6094 35.1562,12.2969 35.1562,11.5 C35.1562,10.5938 35.9531,10.0469 38.2656,9.78125 L38.2656,11.6875 C37.5625,12.2969 37,12.6094 36.3594,12.6094 M40.9375,13 L41.5781,13 L41.5781,8.60938 C42.2031,7.90625 42.7656,7.54688 43.2812,7.54688 C44.1406,7.54688 44.5469,8.10938 44.5469,9.34375 L44.5469,13 L45.1719,13 L45.1719,8.60938 C45.8125,7.90625 46.3438,7.54688 46.875,7.54688 C47.7344,7.54688 48.1406,8.10938 48.1406,9.34375 L48.1406,13 L48.7812,13 L48.7812,9.25 C48.7812,7.73438 48.1875,6.98438 47.0156,6.98438 C46.3281,6.98438 45.7031,7.45312 45.0312,8.17188 C44.8281,7.45312 44.3594,6.98438 43.4219,6.98438 C42.7656,6.98438 42.0938,7.4375 41.5781,8.03125 L41.5469,8.03125 L41.4688,7.14062 L40.9375,7.14062 L40.9375,13 M49.9219,14.4531 L55.7344,14.4531 L55.7344,13.9375 L49.9219,13.9375 L49.9219,14.4531 M56.9688,13 L57.6094,13 L57.6094,8.60938 C58.2969,7.90625 58.7812,7.54688 59.4688,7.54688 C60.3594,7.54688 60.75,8.10938 60.75,9.34375 L60.75,13 L61.3906,13 L61.3906,9.25 C61.3906,7.73438 60.8281,6.98438 59.6094,6.98438 C58.7969,6.98438 58.2031,7.4375 57.6094,8.03125 L57.5781,8.03125 L57.5,7.14062 L56.9688,7.14062 L56.9688,13 M65.6562,13.1406 C67.0781,13.1406 68.3125,12.0156 68.3125,10.0781 C68.3125,8.10938 67.0781,6.98438 65.6562,6.98438 C64.2344,6.98438 63,8.10938 63,10.0781 C63,12.0156 64.2344,13.1406 65.6562,13.1406 M65.6562,12.5938 C64.5156,12.5938 63.6719,11.5625 63.6719,10.0781 C63.6719,8.57812 64.5156,7.54688 65.6562,7.54688 C66.7969,7.54688 67.6562,8.57812 67.6562,10.0781 C67.6562,11.5625 66.7969,12.5938 65.6562,12.5938 M71.9688,13.1406 C72.7344,13.1406 73.375,12.7344 73.8438,12.2656 L73.875,12.2656 L73.9531,13 L74.4844,13 L74.4844,4.25 L73.8438,4.25 L73.8438,6.64062 L73.8906,7.70312 C73.3125,7.25 72.8438,6.98438 72.1406,6.98438 C70.75,6.98438 69.5312,8.1875 69.5312,10.0781 C69.5312,12.0469 70.5,13.1406 71.9688,13.1406 M72.0781,12.5781 C70.8906,12.5781 70.2188,11.5938 70.2188,10.0781 C70.2188,8.625 71.0781,7.54688 72.2031,7.54688 C72.75,7.54688 73.25,7.73438 73.8438,8.26562 L73.8438,11.6562 C73.25,12.2656 72.7031,12.5781 72.0781,12.5781 M78.9062,13.1406 C79.75,13.1406 80.2969,12.875 80.7812,12.5781 L80.5312,12.0938 C80.0938,12.4062 79.5938,12.6094 78.9688,12.6094 C77.7031,12.6094 76.8594,11.6094 76.8281,10.1719 L80.9844,10.1719 C81.0156,10.0312 81.0156,9.875 81.0156,9.70312 C81.0156,8 80.1719,6.98438 78.75,6.98438 C77.4219,6.98438 76.1719,8.17188 76.1719,10.0781 C76.1719,12 77.4062,13.1406 78.9062,13.1406 M76.8281,9.67188 C76.9531,8.32812 77.8125,7.53125 78.7656,7.53125 C79.7812,7.53125 80.4375,8.25 80.4375,9.67188 L76.8281,9.67188"/>
</g>

<g fill="none" stroke="#000000" stroke-opacity="1" stroke-width="1" stroke-linecap="square" stroke-linejoin="bevel" transform="matrix(2.00065,0,0,2.00065,52.4395,19.0062)"
font-family="sans" font-size="11" font-weight="100" font-style="normal" 
>
</g>

<g fill="none" stroke="#000000" stroke-opacity="1" stroke-width="1" stroke-linecap="square" stroke-linejoin="bevel" transform="matrix(2.00065,0,0,2.00065,52.4395,19.0062)"
font-family="Ubuntu" font-size="11" font-weight="400" font-style="normal" 
>
</g>

<g fill="none" stroke="#000000" stroke-opacity="1" stroke-width="1" stroke-linecap="square" stroke-linejoin="bevel" transform="matrix(2.00065,0,0,2.00065,0.00320104,374.802)"
font-family="Ubuntu" font-size="11" font-weight="400" font-style="normal" 
>
</g>

<g fill="none" stroke="#000000" stroke-opacity="1" stroke-width="1" stroke-linecap="square" stroke-linejoin="bevel" transform="matrix(2.00065,0,0,2.00065,0.00320104,374.802)"
font-family="Ubuntu" font-size="11" font-weight="400" font-style="normal" 
>
</g>

<g fill="none" stroke="#000000" stroke-opacity="1" stroke-width="1" stroke-linecap="square" stroke-linejoin="bevel" transform="matrix(2.00065,0,0,2.00065,0.00320104,374.802)"
font-family="Ubuntu" font-size="11" font-weight="400" font-style="normal" 
>
</g>

<g fill="none" stroke="#000000" stroke-opacity="1" stroke-width="1" stroke-linecap="square" stroke-linejoin="round" transform="matrix(2.00065,0,0,2.00065,0.00320104,374.802)"
font-family="Ubuntu" font-size="11" font-weight="400" font-style="normal" 
>
<ellipse cx="66.944" cy="-20.345" rx="61.2436" ry="17.5"/>
</g>

<g fill="none" stroke="#000000" stroke-opacity="1" stroke-width="1" stroke-linecap="square" stroke-linejoin="bevel" transform="matrix(2.00065,0,0,2.00065,0.00320104,374.802)"
font-family="Ubuntu" font-size="11" font-weight="400" font-style="normal" 
>
</g>

<g fill="none" stroke="#000000" stroke-opacity="1" stroke-width="1" stroke-linecap="square" stroke-linejoin="bevel" transform="matrix(2.00065,0,0,2.00065,59.0823,317.093)"
font-family="Ubuntu" font-size="11" font-weight="400" font-style="normal" 
>
</g>

<g fill="none" stroke="#000000" stroke-opacity="1" stroke-width="1" stroke-linecap="square" stroke-linejoin="bevel" transform="matrix(2.00065,0,0,2.00065,59.0823,317.093)"
font-family="sans" font-size="11" font-weight="100" font-style="normal" 
>
</g>

<g fill="#000000" fill-opacity="1" stroke="#000000" stroke-opacity="1" stroke-width="1" stroke-linecap="square" stroke-linejoin="round" transform="matrix(2.00065,0,0,2.00065,59.0823,317.093)"
font-family="sans" font-size="11" font-weight="100" font-style="normal" 
>
<path vector-effect="none" fill-rule="nonzero" d="M0.109375,14.9531 L0.625,14.9531 L4.25,4.35938 L3.73438,4.35938 L0.109375,14.9531 M7.25,13.1406 C7.51562,13.1406 7.89062,13.0469 8.23438,12.9219 L8.07812,12.4219 C7.85938,12.5156 7.57812,12.5938 7.35938,12.5938 C6.57812,12.5938 6.375,12.1094 6.375,11.375 L6.375,7.67188 L8.0625,7.67188 L8.0625,7.14062 L6.375,7.14062 L6.375,5.4375 L5.84375,5.4375 L5.76562,7.14062 L4.82812,7.1875 L4.82812,7.67188 L5.75,7.67188 L5.75,11.3281 C5.75,12.4219 6.09375,13.1406 7.25,13.1406 M11.1406,13.1406 C11.9531,13.1406 12.5469,12.6875 13.125,12.0312 L13.1562,12.0312 L13.2188,13 L13.75,13 L13.75,7.14062 L13.1094,7.14062 L13.1094,11.4219 C12.4531,12.2188 11.9688,12.5781 11.2812,12.5781 C10.3906,12.5781 10.0156,12.0156 10.0156,10.8125 L10.0156,7.14062 L9.375,7.14062 L9.375,10.8906 C9.375,12.3906 9.92188,13.1406 11.1406,13.1406 M15.9375,13 L16.5781,13 L16.5781,9.0625 C17.0156,7.96875 17.6406,7.59375 18.1562,7.59375 C18.3906,7.59375 18.5,7.60938 18.6875,7.6875 L18.8281,7.10938 C18.6406,7.01562 18.4688,6.98438 18.2344,6.98438 C17.5469,6.98438 16.9688,7.48438 16.5781,8.21875 L16.5469,8.21875 L16.4688,7.14062 L15.9375,7.14062 L15.9375,13 M21.5312,13.1406 C21.7969,13.1406 22.1719,13.0469 22.5156,12.9219 L22.3594,12.4219 C22.1406,12.5156 21.8594,12.5938 21.6406,12.5938 C20.8594,12.5938 20.6562,12.1094 20.6562,11.375 L20.6562,7.67188 L22.3438,7.67188 L22.3438,7.14062 L20.6562,7.14062 L20.6562,5.4375 L20.125,5.4375 L20.0469,7.14062 L19.1094,7.1875 L19.1094,7.67188 L20.0312,7.67188 L20.0312,11.3281 C20.0312,12.4219 20.375,13.1406 21.5312,13.1406 M24.5156,13.1406 C24.7344,13.1406 24.8438,13.1094 24.9531,13.0781 L24.8594,12.5781 C24.7344,12.5938 24.6875,12.5938 24.6406,12.5938 C24.4844,12.5938 24.375,12.4688 24.375,12.2031 L24.375,4.25 L23.7344,4.25 L23.7344,12.125 C23.7344,12.8125 24,13.1406 24.5156,13.1406 M28.9062,13.1406 C29.75,13.1406 30.2969,12.875 30.7812,12.5781 L30.5312,12.0938 C30.0938,12.4062 29.5938,12.6094 28.9688,12.6094 C27.7031,12.6094 26.8594,11.6094 26.8281,10.1719 L30.9844,10.1719 C31.0156,10.0312 31.0156,9.875 31.0156,9.70312 C31.0156,8 30.1719,6.98438 28.75,6.98438 C27.4219,6.98438 26.1719,8.17188 26.1719,10.0781 C26.1719,12 27.4062,13.1406 28.9062,13.1406 M26.8281,9.67188 C26.9531,8.32812 27.8125,7.53125 28.7656,7.53125 C29.7812,7.53125 30.4375,8.25 30.4375,9.67188 L26.8281,9.67188 M34.9219,13.1406 C36.2969,13.1406 37.5156,11.9844 37.5156,9.96875 C37.5156,8.17188 36.7188,6.98438 35.1562,6.98438 C34.4531,6.98438 33.75,7.39062 33.1719,7.89062 L33.2031,6.76562 L33.2031,4.25 L32.5625,4.25 L32.5625,13 L33.0938,13 L33.1562,12.4062 L33.1875,12.4062 C33.7188,12.8594 34.375,13.1406 34.9219,13.1406 M34.875,12.5781 C34.4375,12.5781 33.8125,12.3906 33.2031,11.8594 L33.2031,8.48438 C33.8594,7.875 34.4688,7.54688 35.0312,7.54688 C36.3438,7.54688 36.8281,8.5625 36.8281,9.96875 C36.8281,11.5469 36.0156,12.5781 34.875,12.5781 M41.3594,13.1406 C42.7812,13.1406 44.0156,12.0156 44.0156,10.0781 C44.0156,8.10938 42.7812,6.98438 41.3594,6.98438 C39.9375,6.98438 38.7031,8.10938 38.7031,10.0781 C38.7031,12.0156 39.9375,13.1406 41.3594,13.1406 M41.3594,12.5938 C40.2188,12.5938 39.375,11.5625 39.375,10.0781 C39.375,8.57812 40.2188,7.54688 41.3594,7.54688 C42.5,7.54688 43.3594,8.57812 43.3594,10.0781 C43.3594,11.5625 42.5,12.5938 41.3594,12.5938 M47.2188,13.1406 C47.4844,13.1406 47.8594,13.0469 48.2031,12.9219 L48.0469,12.4219 C47.8281,12.5156 47.5469,12.5938 47.3281,12.5938 C46.5469,12.5938 46.3438,12.1094 46.3438,11.375 L46.3438,7.67188 L48.0312,7.67188 L48.0312,7.14062 L46.3438,7.14062 L46.3438,5.4375 L45.8125,5.4375 L45.7344,7.14062 L44.7969,7.1875 L44.7969,7.67188 L45.7188,7.67188 L45.7188,11.3281 C45.7188,12.4219 46.0625,13.1406 47.2188,13.1406 M51.1719,13.1406 C52.5312,13.1406 53.5938,12.2812 53.5938,10.875 C53.5938,9.75 52.7969,9.01562 51.8281,8.8125 L51.8281,8.75 C52.6875,8.46875 53.2969,7.8125 53.2969,6.76562 C53.2969,5.53125 52.3594,4.84375 51.1406,4.82812 C50.2188,4.84375 49.5312,5.25 48.9844,5.76562 L49.3594,6.21875 C49.7969,5.73438 50.4219,5.375 51.125,5.35938 C52.0469,5.375 52.6406,5.95312 52.6406,6.8125 C52.6406,7.78125 52.0312,8.53125 50.2656,8.53125 L50.2656,9.07812 C52.1719,9.07812 52.9219,9.79688 52.9219,10.875 C52.9219,11.9062 52.1719,12.5938 51.1406,12.5938 C50.125,12.5938 49.5,12.1094 49.0312,11.6094 L48.6719,12.0469 C49.1719,12.5781 49.9219,13.1406 51.1719,13.1406 M54.3438,14.4531 L60.1562,14.4531 L60.1562,13.9375 L54.3438,13.9375 L54.3438,14.4531 M62.1719,13.1406 C62.3906,13.1406 62.5,13.1094 62.6094,13.0781 L62.5156,12.5781 C62.3906,12.5938 62.3438,12.5938 62.2969,12.5938 C62.1406,12.5938 62.0312,12.4688 62.0312,12.2031 L62.0312,4.25 L61.3906,4.25 L61.3906,12.125 C61.3906,12.8125 61.6562,13.1406 62.1719,13.1406 M66.2656,13.1406 C67.0312,13.1406 67.6719,12.7344 68.1406,12.2656 L68.1719,12.2656 L68.25,13 L68.7812,13 L68.7812,4.25 L68.1406,4.25 L68.1406,6.64062 L68.1875,7.70312 C67.6094,7.25 67.1406,6.98438 66.4375,6.98438 C65.0469,6.98438 63.8281,8.1875 63.8281,10.0781 C63.8281,12.0469 64.7969,13.1406 66.2656,13.1406 M66.375,12.5781 C65.1875,12.5781 64.5156,11.5938 64.5156,10.0781 C64.5156,8.625 65.375,7.54688 66.5,7.54688 C67.0469,7.54688 67.5469,7.73438 68.1406,8.26562 L68.1406,11.6562 C67.5469,12.2656 67,12.5781 66.375,12.5781 M72.4062,13.1406 C73.7031,13.1406 74.4062,12.375 74.4062,11.4688 C74.4062,10.3438 73.4219,10.0156 72.5156,9.67188 C71.8438,9.42188 71.1562,9.1875 71.1562,8.53125 C71.1562,8 71.5469,7.51562 72.4219,7.51562 C73,7.51562 73.4219,7.75 73.8125,8.04688 L74.1562,7.60938 C73.7031,7.25 73.0781,6.98438 72.4375,6.98438 C71.2188,6.98438 70.5156,7.70312 70.5156,8.5625 C70.5156,9.57812 71.4844,9.9375 72.3594,10.25 C73.0312,10.4844 73.7812,10.8125 73.7812,11.5 C73.7812,12.1094 73.3281,12.6094 72.4375,12.6094 C71.625,12.6094 71.0938,12.3125 70.5781,11.875 L70.25,12.3438 C70.7656,12.7812 71.5469,13.1406 72.4062,13.1406 "/>
</g>

<g fill="none" stroke="#000000" stroke-opacity="1" stroke-width="1" stroke-linecap="square" stroke-linejoin="bevel" transform="matrix(2.00065,0,0,2.00065,59.0823,317.093)"
font-family="sans" font-size="11" font-weight="100" font-style="normal" 
>
</g>

<g fill="none" stroke="#000000" stroke-opacity="1" stroke-width="1" stroke-linecap="square" stroke-linejoin="bevel" transform="matrix(2.00065,0,0,2.00065,59.0823,317.093)"
font-family="Ubuntu" font-size="11" font-weight="400" font-style="normal" 
>
</g>

<g fill="none" stroke="#000000" stroke-opacity="1" stroke-width="1" stroke-linecap="square" stroke-linejoin="bevel" transform="matrix(2.00065,0,0,2.00065,0.00320104,374.802)"
font-family="Ubuntu" font-size="11" font-weight="400" font-style="normal" 
>
</g>

<g fill="none" stroke="#000000" stroke-opacity="1" stroke-width="1" stroke-linecap="square" stroke-linejoin="bevel" transform="matrix(2.00065,0,0,2.00065,0.00320104,374.802)"
font-family="Ubuntu" font-size="11" font-weight="400" font-style="normal" 
>
</g>

<g fill="none" stroke="#000000" stroke-opacity="1" stroke-width="1" stroke-linecap="square" stroke-linejoin="bevel" transform="matrix(2.00065,0,0,2.00065,0.00320104,374.802)"
font-family="Ubuntu" font-size="11" font-weight="400" font-style="normal" 
>
</g>

<g fill="none" stroke="#000000" stroke-opacity="1" stroke-width="1" stroke-linecap="square" stroke-linejoin="round" transform="matrix(2.00065,0,0,2.00065,0.00320104,374.802)"
font-family="Ubuntu" font-size="11" font-weight="400" font-style="normal" 
>
<ellipse cx="292.88" cy="-115.34" rx="79.4416" ry="17.5"/>
</g>

<g fill="none" stroke="#000000" stroke-opacity="1" stroke-width="1" stroke-linecap="square" stroke-linejoin="bevel" transform="matrix(2.00065,0,0,2.00065,0.00320104,374.802)"
font-family="Ubuntu" font-size="11" font-weight="400" font-style="normal" 
>
</g>

<g fill="none" stroke="#000000" stroke-opacity="1" stroke-width="1" stroke-linecap="square" stroke-linejoin="bevel" transform="matrix(2.00065,0,0,2.00065,485.89,127.041)"
font-family="Ubuntu" font-size="11" font-weight="400" font-style="normal" 
>
</g>

<g fill="none" stroke="#000000" stroke-opacity="1" stroke-width="1" stroke-linecap="square" stroke-linejoin="bevel" transform="matrix(2.00065,0,0,2.00065,485.89,127.041)"
font-family="sans" font-size="11" font-weight="100" font-style="normal" 
>
</g>

<g fill="#000000" fill-opacity="1" stroke="#000000" stroke-opacity="1" stroke-width="1" stroke-linecap="square" stroke-linejoin="round" transform="matrix(2.00065,0,0,2.00065,485.89,127.041)"
font-family="sans" font-size="11" font-weight="100" font-style="normal" 
>
<path vector-effect="none" fill-rule="nonzero" d="M0.109375,14.9531 L0.625,14.9531 L4.25,4.35938 L3.73438,4.35938 L0.109375,14.9531 M7.25,13.1406 C7.51562,13.1406 7.89062,13.0469 8.23438,12.9219 L8.07812,12.4219 C7.85938,12.5156 7.57812,12.5938 7.35938,12.5938 C6.57812,12.5938 6.375,12.1094 6.375,11.375 L6.375,7.67188 L8.0625,7.67188 L8.0625,7.14062 L6.375,7.14062 L6.375,5.4375 L5.84375,5.4375 L5.76562,7.14062 L4.82812,7.1875 L4.82812,7.67188 L5.75,7.67188 L5.75,11.3281 C5.75,12.4219 6.09375,13.1406 7.25,13.1406 M11.1406,13.1406 C11.9531,13.1406 12.5469,12.6875 13.125,12.0312 L13.1562,12.0312 L13.2188,13 L13.75,13 L13.75,7.14062 L13.1094,7.14062 L13.1094,11.4219 C12.4531,12.2188 11.9688,12.5781 11.2812,12.5781 C10.3906,12.5781 10.0156,12.0156 10.0156,10.8125 L10.0156,7.14062 L9.375,7.14062 L9.375,10.8906 C9.375,12.3906 9.92188,13.1406 11.1406,13.1406 M15.9375,13 L16.5781,13 L16.5781,9.0625 C17.0156,7.96875 17.6406,7.59375 18.1562,7.59375 C18.3906,7.59375 18.5,7.60938 18.6875,7.6875 L18.8281,7.10938 C18.6406,7.01562 18.4688,6.98438 18.2344,6.98438 C17.5469,6.98438 16.9688,7.48438 16.5781,8.21875 L16.5469,8.21875 L16.4688,7.14062 L15.9375,7.14062 L15.9375,13 M21.5312,13.1406 C21.7969,13.1406 22.1719,13.0469 22.5156,12.9219 L22.3594,12.4219 C22.1406,12.5156 21.8594,12.5938 21.6406,12.5938 C20.8594,12.5938 20.6562,12.1094 20.6562,11.375 L20.6562,7.67188 L22.3438,7.67188 L22.3438,7.14062 L20.6562,7.14062 L20.6562,5.4375 L20.125,5.4375 L20.0469,7.14062 L19.1094,7.1875 L19.1094,7.67188 L20.0312,7.67188 L20.0312,11.3281 C20.0312,12.4219 20.375,13.1406 21.5312,13.1406 M24.5156,13.1406 C24.7344,13.1406 24.8438,13.1094 24.9531,13.0781 L24.8594,12.5781 C24.7344,12.5938 24.6875,12.5938 24.6406,12.5938 C24.4844,12.5938 24.375,12.4688 24.375,12.2031 L24.375,4.25 L23.7344,4.25 L23.7344,12.125 C23.7344,12.8125 24,13.1406 24.5156,13.1406 M28.9062,13.1406 C29.75,13.1406 30.2969,12.875 30.7812,12.5781 L30.5312,12.0938 C30.0938,12.4062 29.5938,12.6094 28.9688,12.6094 C27.7031,12.6094 26.8594,11.6094 26.8281,10.1719 L30.9844,10.1719 C31.0156,10.0312 31.0156,9.875 31.0156,9.70312 C31.0156,8 30.1719,6.98438 28.75,6.98438 C27.4219,6.98438 26.1719,8.17188 26.1719,10.0781 C26.1719,12 27.4062,13.1406 28.9062,13.1406 M26.8281,9.67188 C26.9531,8.32812 27.8125,7.53125 28.7656,7.53125 C29.7812,7.53125 30.4375,8.25 30.4375,9.67188 L26.8281,9.67188 M34.3125,13.1406 C35.6719,13.1406 36.7344,12.2812 36.7344,10.875 C36.7344,9.75 35.9375,9.01562 34.9688,8.8125 L34.9688,8.75 C35.8281,8.46875 36.4375,7.8125 36.4375,6.76562 C36.4375,5.53125 35.5,4.84375 34.2812,4.82812 C33.3594,4.84375 32.6719,5.25 32.125,5.76562 L32.5,6.21875 C32.9375,5.73438 33.5625,5.375 34.2656,5.35938 C35.1875,5.375 35.7812,5.95312 35.7812,6.8125 C35.7812,7.78125 35.1719,8.53125 33.4062,8.53125 L33.4062,9.07812 C35.3125,9.07812 36.0625,9.79688 36.0625,10.875 C36.0625,11.9062 35.3125,12.5938 34.2812,12.5938 C33.2656,12.5938 32.6406,12.1094 32.1719,11.6094 L31.8125,12.0469 C32.3125,12.5781 33.0625,13.1406 34.3125,13.1406 M37.4844,14.4531 L43.2969,14.4531 L43.2969,13.9375 L37.4844,13.9375 L37.4844,14.4531 M45.8281,13.1406 C46.5781,13.1406 47.2812,12.7344 47.875,12.25 L47.9062,12.25 L47.9688,13 L48.5156,13 L48.5156,9.28125 C48.5156,7.98438 48.0156,6.98438 46.6094,6.98438 C45.6562,6.98438 44.8438,7.4375 44.3906,7.75 L44.6875,8.21875 C45.0938,7.90625 45.7656,7.54688 46.5312,7.54688 C47.6406,7.54688 47.8906,8.45312 47.875,9.3125 C45.2812,9.60938 44.125,10.2344 44.125,11.5312 C44.125,12.6094 44.8906,13.1406 45.8281,13.1406 M45.9688,12.6094 C45.3125,12.6094 44.7656,12.2969 44.7656,11.5 C44.7656,10.5938 45.5625,10.0469 47.875,9.78125 L47.875,11.6875 C47.1719,12.2969 46.6094,12.6094 45.9688,12.6094 M52.2344,13.1406 C53.0469,13.1406 53.6406,12.6875 54.2188,12.0312 L54.25,12.0312 L54.3125,13 L54.8438,13 L54.8438,7.14062 L54.2031,7.14062 L54.2031,11.4219 C53.5469,12.2188 53.0625,12.5781 52.375,12.5781 C51.4844,12.5781 51.1094,12.0156 51.1094,10.8125 L51.1094,7.14062 L50.4688,7.14062 L50.4688,10.8906 C50.4688,12.3906 51.0156,13.1406 52.2344,13.1406 M58.6875,13.1406 C58.9531,13.1406 59.3281,13.0469 59.6719,12.9219 L59.5156,12.4219 C59.2969,12.5156 59.0156,12.5938 58.7969,12.5938 C58.0156,12.5938 57.8125,12.1094 57.8125,11.375 L57.8125,7.67188 L59.5,7.67188 L59.5,7.14062 L57.8125,7.14062 L57.8125,5.4375 L57.2812,5.4375 L57.2031,7.14062 L56.2656,7.1875 L56.2656,7.67188 L57.1875,7.67188 L57.1875,11.3281 C57.1875,12.4219 57.5312,13.1406 58.6875,13.1406 M62.9219,13.1406 C64.3438,13.1406 65.5781,12.0156 65.5781,10.0781 C65.5781,8.10938 64.3438,6.98438 62.9219,6.98438 C61.5,6.98438 60.2656,8.10938 60.2656,10.0781 C60.2656,12.0156 61.5,13.1406 62.9219,13.1406 M62.9219,12.5938 C61.7812,12.5938 60.9375,11.5625 60.9375,10.0781 C60.9375,8.57812 61.7812,7.54688 62.9219,7.54688 C64.0625,7.54688 64.9219,8.57812 64.9219,10.0781 C64.9219,11.5625 64.0625,12.5938 62.9219,12.5938 M66.3281,14.4531 L72.1406,14.4531 L72.1406,13.9375 L66.3281,13.9375 L66.3281,14.4531 M73.375,13 L74.0156,13 L74.0156,8.60938 C74.6406,7.90625 75.2031,7.54688 75.7188,7.54688 C76.5781,7.54688 76.9844,8.10938 76.9844,9.34375 L76.9844,13 L77.6094,13 L77.6094,8.60938 C78.25,7.90625 78.7812,7.54688 79.3125,7.54688 C80.1719,7.54688 80.5781,8.10938 80.5781,9.34375 L80.5781,13 L81.2188,13 L81.2188,9.25 C81.2188,7.73438 80.625,6.98438 79.4531,6.98438 C78.7656,6.98438 78.1406,7.45312 77.4688,8.17188 C77.2656,7.45312 76.7969,6.98438 75.8594,6.98438 C75.2031,6.98438 74.5312,7.4375 74.0156,8.03125 L73.9844,8.03125 L73.9062,7.14062 L73.375,7.14062 L73.375,13 M85.4844,13.1406 C86.9062,13.1406 88.1406,12.0156 88.1406,10.0781 C88.1406,8.10938 86.9062,6.98438 85.4844,6.98438 C84.0625,6.98438 82.8281,8.10938 82.8281,10.0781 C82.8281,12.0156 84.0625,13.1406 85.4844,13.1406 M85.4844,12.5938 C84.3438,12.5938 83.5,11.5625 83.5,10.0781 C83.5,8.57812 84.3438,7.54688 85.4844,7.54688 C86.625,7.54688 87.4844,8.57812 87.4844,10.0781 C87.4844,11.5625 86.625,12.5938 85.4844,12.5938 M91.0781,13 L91.8281,13 L93.9844,7.14062 L93.3438,7.14062 L92.0625,10.7344 C91.875,11.3125 91.6719,11.9062 91.4844,12.4219 L91.4375,12.4219 C91.2344,11.9062 91.0312,11.3125 90.8438,10.7344 L89.5938,7.14062 L88.8906,7.14062 L91.0781,13 M97.4688,13.1406 C98.3125,13.1406 98.8594,12.875 99.3438,12.5781 L99.0938,12.0938 C98.6562,12.4062 98.1562,12.6094 97.5312,12.6094 C96.2656,12.6094 95.4219,11.6094 95.3906,10.1719 L99.5469,10.1719 C99.5781,10.0312 99.5781,9.875 99.5781,9.70312 C99.5781,8 98.7344,6.98438 97.3125,6.98438 C95.9844,6.98438 94.7344,8.17188 94.7344,10.0781 C94.7344,12 95.9688,13.1406 97.4688,13.1406 M95.3906,9.67188 C95.5156,8.32812 96.375,7.53125 97.3281,7.53125 C98.3438,7.53125 99,8.25 99,9.67188 L95.3906,9.67188"/>
</g>

<g fill="none" stroke="#000000" stroke-opacity="1" stroke-width="1" stroke-linecap="square" stroke-linejoin="bevel" transform="matrix(2.00065,0,0,2.00065,485.89,127.041)"
font-family="sans" font-size="11" font-weight="100" font-style="normal" 
>
</g>

<g fill="none" stroke="#000000" stroke-opacity="1" stroke-width="1" stroke-linecap="square" stroke-linejoin="bevel" transform="matrix(2.00065,0,0,2.00065,485.89,127.041)"
font-family="Ubuntu" font-size="11" font-weight="400" font-style="normal" 
>
</g>

<g fill="none" stroke="#000000" stroke-opacity="1" stroke-width="1" stroke-linecap="square" stroke-linejoin="bevel" transform="matrix(2.00065,0,0,2.00065,0.00320104,374.802)"
font-family="Ubuntu" font-size="11" font-weight="400" font-style="normal" 
>
</g>

<g fill="none" stroke="#000000" stroke-opacity="1" stroke-width="1" stroke-linecap="square" stroke-linejoin="bevel" transform="matrix(2.00065,0,0,2.00065,0.00320104,374.802)"
font-family="Ubuntu" font-size="11" font-weight="400" font-style="normal" 
>
</g>

<g fill="none" stroke="#000000" stroke-opacity="1" stroke-width="1" stroke-linecap="square" stroke-linejoin="bevel" transform="matrix(2.00065,0,0,2.00065,0.00320104,374.802)"
font-family="Ubuntu" font-size="11" font-weight="400" font-style="normal" 
>
</g>

<g fill="none" stroke="#000000" stroke-opacity="1" stroke-width="1" stroke-linecap="square" stroke-linejoin="round" transform="matrix(2.00065,0,0,2.00065,0.00320104,374.802)"
font-family="Ubuntu" font-size="11" font-weight="400" font-style="normal" 
>
<path vector-effect="none" fill-rule="evenodd" d="M126.56,-25.037 C148.92,-28.892 173.83,-35.844 193.89,-48.345 C198.72,-51.356 197.65,-54.548 201.89,-58.345 C216.77,-71.67 235.11,-83.896 251.34,-93.58 "/>
</g>

<g fill="none" stroke="#000000" stroke-opacity="1" stroke-width="1" stroke-linecap="square" stroke-linejoin="bevel" transform="matrix(2.00065,0,0,2.00065,0.00320104,374.802)"
font-family="Ubuntu" font-size="11" font-weight="400" font-style="normal" 
>
</g>

<g fill="none" stroke="#000000" stroke-opacity="1" stroke-width="1" stroke-linecap="square" stroke-linejoin="bevel" transform="matrix(2.00065,0,0,2.00065,308.68,244.069)"
font-family="Ubuntu" font-size="11" font-weight="400" font-style="normal" 
>
</g>

<g fill="none" stroke="#000000" stroke-opacity="1" stroke-width="1" stroke-linecap="square" stroke-linejoin="bevel" transform="matrix(2.00065,0,0,2.00065,308.68,244.069)"
font-family="sans" font-size="11" font-weight="100" font-style="normal" 
>
</g>

<g fill="#000000" fill-opacity="1" stroke="#000000" stroke-opacity="1" stroke-width="1" stroke-linecap="square" stroke-linejoin="round" transform="matrix(2.00065,0,0,2.00065,308.68,244.069)"
font-family="sans" font-size="11" font-weight="100" font-style="normal" 
>
<path vector-effect="none" fill-rule="nonzero" d="M0.109375,14.9531 L0.625,14.9531 L4.25,4.35938 L3.73438,4.35938 L0.109375,14.9531 M6.875,13.1406 C8.17188,13.1406 8.875,12.375 8.875,11.4688 C8.875,10.3438 7.89062,10.0156 6.98438,9.67188 C6.3125,9.42188 5.625,9.1875 5.625,8.53125 C5.625,8 6.01562,7.51562 6.89062,7.51562 C7.46875,7.51562 7.89062,7.75 8.28125,8.04688 L8.625,7.60938 C8.17188,7.25 7.54688,6.98438 6.90625,6.98438 C5.6875,6.98438 4.98438,7.70312 4.98438,8.5625 C4.98438,9.57812 5.95312,9.9375 6.82812,10.25 C7.5,10.4844 8.25,10.8125 8.25,11.5 C8.25,12.1094 7.79688,12.6094 6.90625,12.6094 C6.09375,12.6094 5.5625,12.3125 5.04688,11.875 L4.71875,12.3438 C5.23438,12.7812 6.01562,13.1406 6.875,13.1406 M12.5938,13.1406 C13.3281,13.1406 13.9688,12.8281 14.4688,12.3906 L14.1562,11.9375 C13.7656,12.2969 13.2344,12.5938 12.625,12.5938 C11.3906,12.5938 10.5781,11.5625 10.5781,10.0781 C10.5781,8.57812 11.4688,7.54688 12.6406,7.54688 C13.1875,7.54688 13.625,7.79688 13.9844,8.14062 L14.3438,7.70312 C13.9375,7.32812 13.4062,6.98438 12.625,6.98438 C11.1719,6.98438 9.90625,8.10938 9.90625,10.0781 C9.90625,12.0156 11.0625,13.1406 12.5938,13.1406 M17.0625,13.1406 C17.8125,13.1406 18.5156,12.7344 19.1094,12.25 L19.1406,12.25 L19.2031,13 L19.75,13 L19.75,9.28125 C19.75,7.98438 19.25,6.98438 17.8438,6.98438 C16.8906,6.98438 16.0781,7.4375 15.625,7.75 L15.9219,8.21875 C16.3281,7.90625 17,7.54688 17.7656,7.54688 C18.875,7.54688 19.125,8.45312 19.1094,9.3125 C16.5156,9.60938 15.3594,10.2344 15.3594,11.5312 C15.3594,12.6094 16.125,13.1406 17.0625,13.1406 M17.2031,12.6094 C16.5469,12.6094 16,12.2969 16,11.5 C16,10.5938 16.7969,10.0469 19.1094,9.78125 L19.1094,11.6875 C18.4062,12.2969 17.8438,12.6094 17.2031,12.6094 M21.7812,13 L22.4219,13 L22.4219,8.60938 C23.1094,7.90625 23.5938,7.54688 24.2812,7.54688 C25.1719,7.54688 25.5625,8.10938 25.5625,9.34375 L25.5625,13 L26.2031,13 L26.2031,9.25 C26.2031,7.73438 25.6406,6.98438 24.4219,6.98438 C23.6094,6.98438 23.0156,7.4375 22.4219,8.03125 L22.3906,8.03125 L22.3125,7.14062 L21.7812,7.14062 L21.7812,13"/>
</g>

<g fill="none" stroke="#000000" stroke-opacity="1" stroke-width="1" stroke-linecap="square" stroke-linejoin="bevel" transform="matrix(2.00065,0,0,2.00065,308.68,244.069)"
font-family="sans" font-size="11" font-weight="100" font-style="normal" 
>
</g>

<g fill="none" stroke="#000000" stroke-opacity="1" stroke-width="1" stroke-linecap="square" stroke-linejoin="bevel" transform="matrix(2.00065,0,0,2.00065,308.68,244.069)"
font-family="Ubuntu" font-size="11" font-weight="400" font-style="normal" 
>
</g>

<g fill="none" stroke="#000000" stroke-opacity="1" stroke-width="1" stroke-linecap="square" stroke-linejoin="bevel" transform="matrix(2.00065,0,0,2.00065,0.00320104,374.802)"
font-family="Ubuntu" font-size="11" font-weight="400" font-style="normal" 
>
</g>

<g fill="#000000" fill-opacity="1" stroke="#000000" stroke-opacity="1" stroke-width="1" stroke-linecap="square" stroke-linejoin="round" transform="matrix(2.00065,0,0,2.00065,0.00320104,374.802)"
font-family="Ubuntu" font-size="11" font-weight="400" font-style="normal" 
>
<path vector-effect="none" fill-rule="evenodd" d="M251.34,-93.58 L253.128,-90.5105 L260.11,-98.689 L249.552,-96.6495 L251.34,-93.58"/>
</g>

<g fill="none" stroke="#000000" stroke-opacity="1" stroke-width="1" stroke-linecap="square" stroke-linejoin="bevel" transform="matrix(2.00065,0,0,2.00065,0.00320104,374.802)"
font-family="Ubuntu" font-size="11" font-weight="400" font-style="normal" 
>
</g>

<g fill="none" stroke="#000000" stroke-opacity="1" stroke-width="1" stroke-linecap="square" stroke-linejoin="bevel" transform="matrix(2.00065,0,0,2.00065,0.00320104,374.802)"
font-family="Ubuntu" font-size="11" font-weight="400" font-style="normal" 
>
</g>

<g fill="none" stroke="#000000" stroke-opacity="1" stroke-width="1" stroke-linecap="square" stroke-linejoin="bevel" transform="matrix(2.00065,0,0,2.00065,0.00320104,374.802)"
font-family="Ubuntu" font-size="11" font-weight="400" font-style="normal" 
>
</g>

<g fill="none" stroke="#000000" stroke-opacity="1" stroke-width="1" stroke-linecap="square" stroke-linejoin="bevel" transform="matrix(2.00065,0,0,2.00065,0.00320104,374.802)"
font-family="Ubuntu" font-size="11" font-weight="400" font-style="normal" 
>
</g>

<g fill="none" stroke="#000000" stroke-opacity="1" stroke-width="1" stroke-linecap="square" stroke-linejoin="round" transform="matrix(2.00065,0,0,2.00065,0.00320104,374.802)"
font-family="Ubuntu" font-size="11" font-weight="400" font-style="normal" 
>
<path vector-effect="none" fill-rule="evenodd" d="M111.81,-7.8445 C121.63,-5.5588 132.05,-3.5252 141.89,-2.3449 C164.83,0.40783 171.02,0.96853 193.89,-2.3449 C208.73,-4.4943 224.44,-8.3843 238.85,-12.632 "/>
</g>

<g fill="none" stroke="#000000" stroke-opacity="1" stroke-width="1" stroke-linecap="square" stroke-linejoin="bevel" transform="matrix(2.00065,0,0,2.00065,0.00320104,374.802)"
font-family="Ubuntu" font-size="11" font-weight="400" font-style="normal" 
>
</g>

<g fill="none" stroke="#000000" stroke-opacity="1" stroke-width="1" stroke-linecap="square" stroke-linejoin="bevel" transform="matrix(2.00065,0,0,2.00065,308.68,338.1)"
font-family="Ubuntu" font-size="11" font-weight="400" font-style="normal" 
>
</g>

<g fill="none" stroke="#000000" stroke-opacity="1" stroke-width="1" stroke-linecap="square" stroke-linejoin="bevel" transform="matrix(2.00065,0,0,2.00065,308.68,338.1)"
font-family="sans" font-size="11" font-weight="100" font-style="normal" 
>
</g>

<g fill="#000000" fill-opacity="1" stroke="#000000" stroke-opacity="1" stroke-width="1" stroke-linecap="square" stroke-linejoin="round" transform="matrix(2.00065,0,0,2.00065,308.68,338.1)"
font-family="sans" font-size="11" font-weight="100" font-style="normal" 
>
<path vector-effect="none" fill-rule="nonzero" d="M0.109375,14.9531 L0.625,14.9531 L4.25,4.35938 L3.73438,4.35938 L0.109375,14.9531 M6.875,13.1406 C8.17188,13.1406 8.875,12.375 8.875,11.4688 C8.875,10.3438 7.89062,10.0156 6.98438,9.67188 C6.3125,9.42188 5.625,9.1875 5.625,8.53125 C5.625,8 6.01562,7.51562 6.89062,7.51562 C7.46875,7.51562 7.89062,7.75 8.28125,8.04688 L8.625,7.60938 C8.17188,7.25 7.54688,6.98438 6.90625,6.98438 C5.6875,6.98438 4.98438,7.70312 4.98438,8.5625 C4.98438,9.57812 5.95312,9.9375 6.82812,10.25 C7.5,10.4844 8.25,10.8125 8.25,11.5 C8.25,12.1094 7.79688,12.6094 6.90625,12.6094 C6.09375,12.6094 5.5625,12.3125 5.04688,11.875 L4.71875,12.3438 C5.23438,12.7812 6.01562,13.1406 6.875,13.1406 M12.5938,13.1406 C13.3281,13.1406 13.9688,12.8281 14.4688,12.3906 L14.1562,11.9375 C13.7656,12.2969 13.2344,12.5938 12.625,12.5938 C11.3906,12.5938 10.5781,11.5625 10.5781,10.0781 C10.5781,8.57812 11.4688,7.54688 12.6406,7.54688 C13.1875,7.54688 13.625,7.79688 13.9844,8.14062 L14.3438,7.70312 C13.9375,7.32812 13.4062,6.98438 12.625,6.98438 C11.1719,6.98438 9.90625,8.10938 9.90625,10.0781 C9.90625,12.0156 11.0625,13.1406 12.5938,13.1406 M17.0625,13.1406 C17.8125,13.1406 18.5156,12.7344 19.1094,12.25 L19.1406,12.25 L19.2031,13 L19.75,13 L19.75,9.28125 C19.75,7.98438 19.25,6.98438 17.8438,6.98438 C16.8906,6.98438 16.0781,7.4375 15.625,7.75 L15.9219,8.21875 C16.3281,7.90625 17,7.54688 17.7656,7.54688 C18.875,7.54688 19.125,8.45312 19.1094,9.3125 C16.5156,9.60938 15.3594,10.2344 15.3594,11.5312 C15.3594,12.6094 16.125,13.1406 17.0625,13.1406 M17.2031,12.6094 C16.5469,12.6094 16,12.2969 16,11.5 C16,10.5938 16.7969,10.0469 19.1094,9.78125 L19.1094,11.6875 C18.4062,12.2969 17.8438,12.6094 17.2031,12.6094 M21.7812,13 L22.4219,13 L22.4219,8.60938 C23.1094,7.90625 23.5938,7.54688 24.2812,7.54688 C25.1719,7.54688 25.5625,8.10938 25.5625,9.34375 L25.5625,13 L26.2031,13 L26.2031,9.25 C26.2031,7.73438 25.6406,6.98438 24.4219,6.98438 C23.6094,6.98438 23.0156,7.4375 22.4219,8.03125 L22.3906,8.03125 L22.3125,7.14062 L21.7812,7.14062 L21.7812,13"/>
</g>

<g fill="none" stroke="#000000" stroke-opacity="1" stroke-width="1" stroke-linecap="square" stroke-linejoin="bevel" transform="matrix(2.00065,0,0,2.00065,308.68,338.1)"
font-family="sans" font-size="11" font-weight="100" font-style="normal" 
>
</g>

<g fill="none" stroke="#000000" stroke-opacity="1" stroke-width="1" stroke-linecap="square" stroke-linejoin="bevel" transform="matrix(2.00065,0,0,2.00065,308.68,338.1)"
font-family="Ubuntu" font-size="11" font-weight="400" font-style="normal" 
>
</g>

<g fill="none" stroke="#000000" stroke-opacity="1" stroke-width="1" stroke-linecap="square" stroke-linejoin="bevel" transform="matrix(2.00065,0,0,2.00065,0.00320104,374.802)"
font-family="Ubuntu" font-size="11" font-weight="400" font-style="normal" 
>
</g>

<g fill="#000000" fill-opacity="1" stroke="#000000" stroke-opacity="1" stroke-width="1" stroke-linecap="square" stroke-linejoin="round" transform="matrix(2.00065,0,0,2.00065,0.00320104,374.802)"
font-family="Ubuntu" font-size="11" font-weight="400" font-style="normal" 
>
<path vector-effect="none" fill-rule="evenodd" d="M238.85,-12.632 L239.893,-9.2265 L248.58,-15.612 L237.807,-16.0375 L238.85,-12.632"/>
</g>

<g fill="none" stroke="#000000" stroke-opacity="1" stroke-width="1" stroke-linecap="square" stroke-linejoin="bevel" transform="matrix(2.00065,0,0,2.00065,0.00320104,374.802)"
font-family="Ubuntu" font-size="11" font-weight="400" font-style="normal" 
>
</g>

<g fill="none" stroke="#000000" stroke-opacity="1" stroke-width="1" stroke-linecap="square" stroke-linejoin="bevel" transform="matrix(2.00065,0,0,2.00065,0.00320104,374.802)"
font-family="Ubuntu" font-size="11" font-weight="400" font-style="normal" 
>
</g>

<g fill="none" stroke="#000000" stroke-opacity="1" stroke-width="1" stroke-linecap="square" stroke-linejoin="bevel" transform="matrix(2.00065,0,0,2.00065,0.00320104,374.802)"
font-family="Ubuntu" font-size="11" font-weight="400" font-style="normal" 
>
</g>

<g fill="none" stroke="#000000" stroke-opacity="1" stroke-width="1" stroke-linecap="square" stroke-linejoin="bevel" transform="matrix(2.00065,0,0,2.00065,0.00320104,374.802)"
font-family="Ubuntu" font-size="11" font-weight="400" font-style="normal" 
>
</g>

<g fill="none" stroke="#000000" stroke-opacity="1" stroke-width="1" stroke-linecap="square" stroke-linejoin="round" transform="matrix(2.00065,0,0,2.00065,0.00320104,374.802)"
font-family="Ubuntu" font-size="11" font-weight="400" font-style="normal" 
>
<path vector-effect="none" fill-rule="evenodd" d="M133.92,-115.34 C155.5,-115.34 179.83,-115.34 202.82,-115.34 "/>
</g>

<g fill="none" stroke="#000000" stroke-opacity="1" stroke-width="1" stroke-linecap="square" stroke-linejoin="bevel" transform="matrix(2.00065,0,0,2.00065,0.00320104,374.802)"
font-family="Ubuntu" font-size="11" font-weight="400" font-style="normal" 
>
</g>

<g fill="none" stroke="#000000" stroke-opacity="1" stroke-width="1" stroke-linecap="square" stroke-linejoin="bevel" transform="matrix(2.00065,0,0,2.00065,302.366,112.036)"
font-family="Ubuntu" font-size="11" font-weight="400" font-style="normal" 
>
</g>

<g fill="none" stroke="#000000" stroke-opacity="1" stroke-width="1" stroke-linecap="square" stroke-linejoin="bevel" transform="matrix(2.00065,0,0,2.00065,302.366,112.036)"
font-family="sans" font-size="11" font-weight="100" font-style="normal" 
>
</g>

<g fill="#000000" fill-opacity="1" stroke="#000000" stroke-opacity="1" stroke-width="1" stroke-linecap="square" stroke-linejoin="round" transform="matrix(2.00065,0,0,2.00065,302.366,112.036)"
font-family="sans" font-size="11" font-weight="100" font-style="normal" 
>
<path vector-effect="none" fill-rule="nonzero" d="M0.109375,14.9531 L0.625,14.9531 L4.25,4.35938 L3.73438,4.35938 L0.109375,14.9531 M7.14062,13.1406 C8.5625,13.1406 9.79688,12.0156 9.79688,10.0781 C9.79688,8.10938 8.5625,6.98438 7.14062,6.98438 C5.71875,6.98438 4.48438,8.10938 4.48438,10.0781 C4.48438,12.0156 5.71875,13.1406 7.14062,13.1406 M7.14062,12.5938 C6,12.5938 5.15625,11.5625 5.15625,10.0781 C5.15625,8.57812 6,7.54688 7.14062,7.54688 C8.28125,7.54688 9.14062,8.57812 9.14062,10.0781 C9.14062,11.5625 8.28125,12.5938 7.14062,12.5938 M13.4531,13.1406 C14.2188,13.1406 14.8594,12.7344 15.3281,12.2656 L15.3594,12.2656 L15.4375,13 L15.9688,13 L15.9688,4.25 L15.3281,4.25 L15.3281,6.64062 L15.375,7.70312 C14.7969,7.25 14.3281,6.98438 13.625,6.98438 C12.2344,6.98438 11.0156,8.1875 11.0156,10.0781 C11.0156,12.0469 11.9844,13.1406 13.4531,13.1406 M13.5625,12.5781 C12.375,12.5781 11.7031,11.5938 11.7031,10.0781 C11.7031,8.625 12.5625,7.54688 13.6875,7.54688 C14.2344,7.54688 14.7344,7.73438 15.3281,8.26562 L15.3281,11.6562 C14.7344,12.2656 14.1875,12.5781 13.5625,12.5781 M20.3125,13.1406 C21.7344,13.1406 22.9688,12.0156 22.9688,10.0781 C22.9688,8.10938 21.7344,6.98438 20.3125,6.98438 C18.8906,6.98438 17.6562,8.10938 17.6562,10.0781 C17.6562,12.0156 18.8906,13.1406 20.3125,13.1406 M20.3125,12.5938 C19.1719,12.5938 18.3281,11.5625 18.3281,10.0781 C18.3281,8.57812 19.1719,7.54688 20.3125,7.54688 C21.4531,7.54688 22.3125,8.57812 22.3125,10.0781 C22.3125,11.5625 21.4531,12.5938 20.3125,12.5938 M24.6719,13 L25.3125,13 L25.3125,8.60938 C25.9375,7.90625 26.5,7.54688 27.0156,7.54688 C27.875,7.54688 28.2812,8.10938 28.2812,9.34375 L28.2812,13 L28.9062,13 L28.9062,8.60938 C29.5469,7.90625 30.0781,7.54688 30.6094,7.54688 C31.4688,7.54688 31.875,8.10938 31.875,9.34375 L31.875,13 L32.5156,13 L32.5156,9.25 C32.5156,7.73438 31.9219,6.98438 30.75,6.98438 C30.0625,6.98438 29.4375,7.45312 28.7656,8.17188 C28.5625,7.45312 28.0938,6.98438 27.1562,6.98438 C26.5,6.98438 25.8281,7.4375 25.3125,8.03125 L25.2812,8.03125 L25.2031,7.14062 L24.6719,7.14062 L24.6719,13"/>
</g>

<g fill="none" stroke="#000000" stroke-opacity="1" stroke-width="1" stroke-linecap="square" stroke-linejoin="bevel" transform="matrix(2.00065,0,0,2.00065,302.366,112.036)"
font-family="sans" font-size="11" font-weight="100" font-style="normal" 
>
</g>

<g fill="none" stroke="#000000" stroke-opacity="1" stroke-width="1" stroke-linecap="square" stroke-linejoin="bevel" transform="matrix(2.00065,0,0,2.00065,302.366,112.036)"
font-family="Ubuntu" font-size="11" font-weight="400" font-style="normal" 
>
</g>

<g fill="none" stroke="#000000" stroke-opacity="1" stroke-width="1" stroke-linecap="square" stroke-linejoin="bevel" transform="matrix(2.00065,0,0,2.00065,0.00320104,374.802)"
font-family="Ubuntu" font-size="11" font-weight="400" font-style="normal" 
>
</g>

<g fill="#000000" fill-opacity="1" stroke="#000000" stroke-opacity="1" stroke-width="1" stroke-linecap="square" stroke-linejoin="round" transform="matrix(2.00065,0,0,2.00065,0.00320104,374.802)"
font-family="Ubuntu" font-size="11" font-weight="400" font-style="normal" 
>
<path vector-effect="none" fill-rule="evenodd" d="M202.82,-115.34 L202.82,-111.802 L212.93,-115.34 L202.82,-118.879 L202.82,-115.34"/>
</g>

<g fill="none" stroke="#000000" stroke-opacity="1" stroke-width="1" stroke-linecap="square" stroke-linejoin="bevel" transform="matrix(2.00065,0,0,2.00065,0.00320104,374.802)"
font-family="Ubuntu" font-size="11" font-weight="400" font-style="normal" 
>
</g>

<g fill="none" stroke="#000000" stroke-opacity="1" stroke-width="1" stroke-linecap="square" stroke-linejoin="bevel" transform="matrix(2.00065,0,0,2.00065,0.00320104,374.802)"
font-family="Ubuntu" font-size="11" font-weight="400" font-style="normal" 
>
</g>

<g fill="none" stroke="#000000" stroke-opacity="1" stroke-width="1" stroke-linecap="square" stroke-linejoin="bevel" transform="matrix(2.00065,0,0,2.00065,0.00320104,374.802)"
font-family="Ubuntu" font-size="11" font-weight="400" font-style="normal" 
>
</g>

<g fill="none" stroke="#000000" stroke-opacity="1" stroke-width="1" stroke-linecap="square" stroke-linejoin="bevel" transform="matrix(2.00065,0,0,2.00065,0.00320104,374.802)"
font-family="Ubuntu" font-size="11" font-weight="400" font-style="normal" 
>
</g>

<g fill="none" stroke="#000000" stroke-opacity="1" stroke-width="1" stroke-linecap="square" stroke-linejoin="round" transform="matrix(2.00065,0,0,2.00065,0.00320104,374.802)"
font-family="Ubuntu" font-size="11" font-weight="400" font-style="normal" 
>
<path vector-effect="none" fill-rule="evenodd" d="M106.7,-100.81 C143.55,-86.985 199.25,-66.092 239.93,-50.83 "/>
</g>

<g fill="none" stroke="#000000" stroke-opacity="1" stroke-width="1" stroke-linecap="square" stroke-linejoin="bevel" transform="matrix(2.00065,0,0,2.00065,0.00320104,374.802)"
font-family="Ubuntu" font-size="11" font-weight="400" font-style="normal" 
>
</g>

<g fill="none" stroke="#000000" stroke-opacity="1" stroke-width="1" stroke-linecap="square" stroke-linejoin="bevel" transform="matrix(2.00065,0,0,2.00065,311.916,172.046)"
font-family="Ubuntu" font-size="11" font-weight="400" font-style="normal" 
>
</g>

<g fill="none" stroke="#000000" stroke-opacity="1" stroke-width="1" stroke-linecap="square" stroke-linejoin="bevel" transform="matrix(2.00065,0,0,2.00065,311.916,172.046)"
font-family="sans" font-size="11" font-weight="100" font-style="normal" 
>
</g>

<g fill="#000000" fill-opacity="1" stroke="#000000" stroke-opacity="1" stroke-width="1" stroke-linecap="square" stroke-linejoin="round" transform="matrix(2.00065,0,0,2.00065,311.916,172.046)"
font-family="sans" font-size="11" font-weight="100" font-style="normal" 
>
<path vector-effect="none" fill-rule="nonzero" d="M0.109375,14.9531 L0.625,14.9531 L4.25,4.35938 L3.73438,4.35938 L0.109375,14.9531 M5.82812,13 L6.46875,13 L6.46875,7.14062 L5.82812,7.14062 L5.82812,13 M6.17188,5.76562 C6.45312,5.76562 6.70312,5.54688 6.70312,5.25 C6.70312,4.92188 6.45312,4.73438 6.17188,4.73438 C5.875,4.73438 5.625,4.92188 5.625,5.25 C5.625,5.54688 5.875,5.76562 6.17188,5.76562 M8.64062,13 L9.28125,13 L9.28125,8.60938 C9.90625,7.90625 10.4688,7.54688 10.9844,7.54688 C11.8438,7.54688 12.25,8.10938 12.25,9.34375 L12.25,13 L12.875,13 L12.875,8.60938 C13.5156,7.90625 14.0469,7.54688 14.5781,7.54688 C15.4375,7.54688 15.8438,8.10938 15.8438,9.34375 L15.8438,13 L16.4844,13 L16.4844,9.25 C16.4844,7.73438 15.8906,6.98438 14.7188,6.98438 C14.0312,6.98438 13.4062,7.45312 12.7344,8.17188 C12.5312,7.45312 12.0625,6.98438 11.125,6.98438 C10.4688,6.98438 9.79688,7.4375 9.28125,8.03125 L9.25,8.03125 L9.17188,7.14062 L8.64062,7.14062 L8.64062,13 M20.2656,13.1406 C21.0781,13.1406 21.6719,12.6875 22.25,12.0312 L22.2812,12.0312 L22.3438,13 L22.875,13 L22.875,7.14062 L22.2344,7.14062 L22.2344,11.4219 C21.5781,12.2188 21.0938,12.5781 20.4062,12.5781 C19.5156,12.5781 19.1406,12.0156 19.1406,10.8125 L19.1406,7.14062 L18.5,7.14062 L18.5,10.8906 C18.5,12.3906 19.0469,13.1406 20.2656,13.1406 "/>
</g>

<g fill="none" stroke="#000000" stroke-opacity="1" stroke-width="1" stroke-linecap="square" stroke-linejoin="bevel" transform="matrix(2.00065,0,0,2.00065,311.916,172.046)"
font-family="sans" font-size="11" font-weight="100" font-style="normal" 
>
</g>

<g fill="none" stroke="#000000" stroke-opacity="1" stroke-width="1" stroke-linecap="square" stroke-linejoin="bevel" transform="matrix(2.00065,0,0,2.00065,311.916,172.046)"
font-family="Ubuntu" font-size="11" font-weight="400" font-style="normal" 
>
</g>

<g fill="none" stroke="#000000" stroke-opacity="1" stroke-width="1" stroke-linecap="square" stroke-linejoin="bevel" transform="matrix(2.00065,0,0,2.00065,0.00320104,374.802)"
font-family="Ubuntu" font-size="11" font-weight="400" font-style="normal" 
>
</g>

<g fill="#000000" fill-opacity="1" stroke="#000000" stroke-opacity="1" stroke-width="1" stroke-linecap="square" stroke-linejoin="round" transform="matrix(2.00065,0,0,2.00065,0.00320104,374.802)"
font-family="Ubuntu" font-size="11" font-weight="400" font-style="normal" 
>
<path vector-effect="none" fill-rule="evenodd" d="M239.93,-50.83 L238.686,-47.512 L249.41,-47.275 L241.174,-54.148 L239.93,-50.83"/>
</g>

<g fill="none" stroke="#000000" stroke-opacity="1" stroke-width="1" stroke-linecap="square" stroke-linejoin="bevel" transform="matrix(2.00065,0,0,2.00065,0.00320104,374.802)"
font-family="Ubuntu" font-size="11" font-weight="400" font-style="normal" 
>
</g>

<g fill="none" stroke="#000000" stroke-opacity="1" stroke-width="1" stroke-linecap="square" stroke-linejoin="bevel" transform="matrix(2.00065,0,0,2.00065,0.00320104,374.802)"
font-family="Ubuntu" font-size="11" font-weight="400" font-style="normal" 
>
</g>

<g fill="none" stroke="#000000" stroke-opacity="1" stroke-width="1" stroke-linecap="square" stroke-linejoin="bevel" transform="matrix(2.00065,0,0,2.00065,0.00320104,374.802)"
font-family="Ubuntu" font-size="11" font-weight="400" font-style="normal" 
>
</g>

<g fill="none" stroke="#000000" stroke-opacity="1" stroke-width="1" stroke-linecap="square" stroke-linejoin="bevel" transform="matrix(2.00065,0,0,2.00065,0.00320104,374.802)"
font-family="Ubuntu" font-size="11" font-weight="400" font-style="normal" 
>
</g>

<g fill="none" stroke="#000000" stroke-opacity="1" stroke-width="1" stroke-linecap="square" stroke-linejoin="round" transform="matrix(2.00065,0,0,2.00065,0.00320104,374.802)"
font-family="Ubuntu" font-size="11" font-weight="400" font-style="normal" 
>
<path vector-effect="none" fill-rule="evenodd" d="M233.11,-127.42 C205.43,-131.62 171.96,-134.56 141.89,-131.34 C136.87,-130.81 131.7,-130.07 126.53,-129.21 "/>
</g>

<g fill="none" stroke="#000000" stroke-opacity="1" stroke-width="1" stroke-linecap="square" stroke-linejoin="bevel" transform="matrix(2.00065,0,0,2.00065,0.00320104,374.802)"
font-family="Ubuntu" font-size="11" font-weight="400" font-style="normal" 
>
</g>

<g fill="none" stroke="#000000" stroke-opacity="1" stroke-width="1" stroke-linecap="square" stroke-linejoin="bevel" transform="matrix(2.00065,0,0,2.00065,289.643,78.0254)"
font-family="Ubuntu" font-size="11" font-weight="400" font-style="normal" 
>
</g>

<g fill="none" stroke="#000000" stroke-opacity="1" stroke-width="1" stroke-linecap="square" stroke-linejoin="bevel" transform="matrix(2.00065,0,0,2.00065,289.643,78.0254)"
font-family="sans" font-size="11" font-weight="100" font-style="normal" 
>
</g>

<g fill="#000000" fill-opacity="1" stroke="#000000" stroke-opacity="1" stroke-width="1" stroke-linecap="square" stroke-linejoin="round" transform="matrix(2.00065,0,0,2.00065,289.643,78.0254)"
font-family="sans" font-size="11" font-weight="100" font-style="normal" 
>
<path vector-effect="none" fill-rule="nonzero" d="M0.109375,14.9531 L0.625,14.9531 L4.25,4.35938 L3.73438,4.35938 L0.109375,14.9531 M7.17188,13.1406 C7.90625,13.1406 8.54688,12.8281 9.04688,12.3906 L8.73438,11.9375 C8.34375,12.2969 7.8125,12.5938 7.20312,12.5938 C5.96875,12.5938 5.15625,11.5625 5.15625,10.0781 C5.15625,8.57812 6.04688,7.54688 7.21875,7.54688 C7.76562,7.54688 8.20312,7.79688 8.5625,8.14062 L8.92188,7.70312 C8.51562,7.32812 7.98438,6.98438 7.20312,6.98438 C5.75,6.98438 4.48438,8.10938 4.48438,10.0781 C4.48438,12.0156 5.64062,13.1406 7.17188,13.1406 M10.4531,13 L11.0938,13 L11.0938,8.60938 C11.7188,7.90625 12.2812,7.54688 12.7969,7.54688 C13.6562,7.54688 14.0625,8.10938 14.0625,9.34375 L14.0625,13 L14.6875,13 L14.6875,8.60938 C15.3281,7.90625 15.8594,7.54688 16.3906,7.54688 C17.25,7.54688 17.6562,8.10938 17.6562,9.34375 L17.6562,13 L18.2969,13 L18.2969,9.25 C18.2969,7.73438 17.7031,6.98438 16.5312,6.98438 C15.8438,6.98438 15.2188,7.45312 14.5469,8.17188 C14.3438,7.45312 13.875,6.98438 12.9375,6.98438 C12.2812,6.98438 11.6094,7.4375 11.0938,8.03125 L11.0625,8.03125 L10.9844,7.14062 L10.4531,7.14062 L10.4531,13 M22.3438,13.1406 C23.1094,13.1406 23.75,12.7344 24.2188,12.2656 L24.25,12.2656 L24.3281,13 L24.8594,13 L24.8594,4.25 L24.2188,4.25 L24.2188,6.64062 L24.2656,7.70312 C23.6875,7.25 23.2188,6.98438 22.5156,6.98438 C21.125,6.98438 19.9062,8.1875 19.9062,10.0781 C19.9062,12.0469 20.875,13.1406 22.3438,13.1406 M22.4531,12.5781 C21.2656,12.5781 20.5938,11.5938 20.5938,10.0781 C20.5938,8.625 21.4531,7.54688 22.5781,7.54688 C23.125,7.54688 23.625,7.73438 24.2188,8.26562 L24.2188,11.6562 C23.625,12.2656 23.0781,12.5781 22.4531,12.5781 M26.0781,14.4531 L31.8906,14.4531 L31.8906,13.9375 L26.0781,13.9375 L26.0781,14.4531 M34.3594,13 L35.1094,13 L37.2656,7.14062 L36.625,7.14062 L35.3438,10.7344 C35.1562,11.3125 34.9531,11.9062 34.7656,12.4219 L34.7188,12.4219 C34.5156,11.9062 34.3125,11.3125 34.125,10.7344 L32.875,7.14062 L32.1719,7.14062 L34.3594,13 M40.75,13.1406 C41.5938,13.1406 42.1406,12.875 42.625,12.5781 L42.375,12.0938 C41.9375,12.4062 41.4375,12.6094 40.8125,12.6094 C39.5469,12.6094 38.7031,11.6094 38.6719,10.1719 L42.8281,10.1719 C42.8594,10.0312 42.8594,9.875 42.8594,9.70312 C42.8594,8 42.0156,6.98438 40.5938,6.98438 C39.2656,6.98438 38.0156,8.17188 38.0156,10.0781 C38.0156,12 39.25,13.1406 40.75,13.1406 M38.6719,9.67188 C38.7969,8.32812 39.6562,7.53125 40.6094,7.53125 C41.625,7.53125 42.2812,8.25 42.2812,9.67188 L38.6719,9.67188 M45.1875,13.1406 C45.4062,13.1406 45.5156,13.1094 45.625,13.0781 L45.5312,12.5781 C45.4062,12.5938 45.3594,12.5938 45.3125,12.5938 C45.1562,12.5938 45.0469,12.4688 45.0469,12.2031 L45.0469,4.25 L44.4062,4.25 L44.4062,12.125 C44.4062,12.8125 44.6719,13.1406 45.1875,13.1406 "/>
</g>

<g fill="none" stroke="#000000" stroke-opacity="1" stroke-width="1" stroke-linecap="square" stroke-linejoin="bevel" transform="matrix(2.00065,0,0,2.00065,289.643,78.0254)"
font-family="sans" font-size="11" font-weight="100" font-style="normal" 
>
</g>

<g fill="none" stroke="#000000" stroke-opacity="1" stroke-width="1" stroke-linecap="square" stroke-linejoin="bevel" transform="matrix(2.00065,0,0,2.00065,289.643,78.0254)"
font-family="Ubuntu" font-size="11" font-weight="400" font-style="normal" 
>
</g>

<g fill="none" stroke="#000000" stroke-opacity="1" stroke-width="1" stroke-linecap="square" stroke-linejoin="bevel" transform="matrix(2.00065,0,0,2.00065,0.00320104,374.802)"
font-family="Ubuntu" font-size="11" font-weight="400" font-style="normal" 
>
</g>

<g fill="#000000" fill-opacity="1" stroke="#000000" stroke-opacity="1" stroke-width="1" stroke-linecap="square" stroke-linejoin="round" transform="matrix(2.00065,0,0,2.00065,0.00320104,374.802)"
font-family="Ubuntu" font-size="11" font-weight="400" font-style="normal" 
>
<path vector-effect="none" fill-rule="evenodd" d="M126.53,-129.21 L125.9,-132.675 L116.63,-127.41 L127.16,-125.745 L126.53,-129.21"/>
</g>

<g fill="none" stroke="#000000" stroke-opacity="1" stroke-width="1" stroke-linecap="square" stroke-linejoin="bevel" transform="matrix(2.00065,0,0,2.00065,0.00320104,374.802)"
font-family="Ubuntu" font-size="11" font-weight="400" font-style="normal" 
>
</g>

<g fill="none" stroke="#000000" stroke-opacity="1" stroke-width="1" stroke-linecap="square" stroke-linejoin="bevel" transform="matrix(1,0,0,1,0,0)"
font-family="Ubuntu" font-size="11" font-weight="400" font-style="normal" 
>
</g>
</g>
</svg>
